<?xml version="1.0" standalone="no"?>
<!DOCTYPE svg PUBLIC "-//W3C//DTD SVG 1.1//EN" "http://www.w3.org/Graphics/SVG/1.1/DTD/svg11.dtd" >
<svg>
<metadata>
Created by FontForge 20090914 at Sat Aug  7 10:13:22 2021
 By www-data
Copyright (c) 2003, 2006 Nick Curtis. All Rights Reserved. Distributed under non-exclusive license by 1001 Free Fonts.
</metadata>
<defs>
<font id="GreatLakesNF" horiz-adv-x="492" >
  <font-face 
    font-family="Great Lakes NF"
    font-weight="400"
    font-stretch="normal"
    units-per-em="1000"
    panose-1="2 1 8 6 3 7 4 4 4 4"
    ascent="890"
    descent="-110"
    x-height="720"
    cap-height="847"
    bbox="-79 -265.999 1511 1155"
    underline-thickness="20"
    underline-position="-123"
    unicode-range="U+0020-U+2212"
  />
<missing-glyph horiz-adv-x="225" 
 />
    <glyph glyph-name=".notdef" horiz-adv-x="225" 
 />
    <glyph glyph-name="space" unicode=" " horiz-adv-x="225" 
 />
    <glyph glyph-name="exclam" unicode="!" horiz-adv-x="332" 
d="M254 268h-177l-57 579h292zM53 0v230h225v-230h-225z" />
    <glyph glyph-name="quotedbl" unicode="&#x22;" horiz-adv-x="483" 
d="M376 544h-146v223l-64 -223h-146v303h443z" />
    <glyph glyph-name="numbersign" unicode="#" horiz-adv-x="568" 
d="M464 640l84 -14v-124l-104 18l-15 -84l119 -20v-124l-139 23l-54 -315h-123l57 336l-74 12l-60 -348h-123l63 369l-75 13v123l95 -16l15 84l-110 19v123l130 -22l26 153h124l-30 -174l74 -12l32 186h124zM235 468l74 -12l15 84l-74 13z" />
    <glyph glyph-name="dollar" unicode="$" horiz-adv-x="461" 
d="M246 574l0.000976562 -67h118c10 0 19.5 -2.16699 28.5 -6.5s17 -10 24 -17s12.667 -15 17 -24s6.5 -18.5 6.5 -28.5v-219c0 -10 -2.16699 -19.5 -6.5 -28.5s-10 -17 -17 -24s-15 -12.667 -24 -17s-18.5 -6.5 -28.5 -6.5h-49v-136h-158v136h-128v153h185v65h-117
c-19.333 0 -37 8 -53 24s-24 33.667 -24 53v220c0 10 2.16699 19.5 6.5 28.5s10.166 17 17.499 24s15.5 12.667 24.5 17s18.5 6.5 28.5 6.5h60v120h158v-120h126v-153h-195z" />
    <glyph glyph-name="percent" unicode="%" horiz-adv-x="790" 
d="M285 0h-152l372 846h153zM286 462c0 -9.33301 -4.16699 -18 -12.5 -26s-17.166 -12 -26.499 -12h-189c-9.33301 0 -18 4 -26 12s-12 16.667 -12 26v348c0 9.33301 4 18 12 26s16.667 12 26 12h189c9.33301 0 18.166 -4 26.499 -12s12.5 -16.667 12.5 -26v-348zM173 771
h-41v-270h41v270zM770 38c0 -9.33301 -4.16699 -18 -12.5 -26s-17.166 -12 -26.499 -12h-189c-9.33301 0 -18 4 -26 12s-12 16.667 -12 26v348c0 9.33301 4 18 12 26s16.667 12 26 12h189c9.33301 0 18.166 -4 26.499 -12s12.5 -16.667 12.5 -26v-348zM657 347h-41v-270h41
v270z" />
    <glyph glyph-name="ampersand" unicode="&#x26;" horiz-adv-x="597" 
d="M501 371v-295.001c0 -10 -2.16699 -19.5 -6.5 -28.5s-10 -17 -17 -24s-15 -12.667 -24 -17s-18.5 -6.5 -28.5 -6.5h-329c-10 0 -19.5 2.16699 -28.5 6.5s-17 10 -24 17s-12.667 15 -17 24s-6.5 18.5 -6.5 28.5v295c0 24.667 18.333 51.334 55 80.001
c-36.667 32 -55 59.667 -55 83v237c0 10 2.16699 19.5 6.5 28.5s10 17 17 24s15 12.667 24 17s18.5 6.5 28.5 6.5h211l36 -153h-118v-170h122v84h154v-84h76v-153h-76zM347 370.999h-122v-218h122v218z" />
    <glyph glyph-name="quotesingle" unicode="'" horiz-adv-x="273" 
d="M166 544h-146v303h233z" />
    <glyph glyph-name="parenleft" unicode="(" horiz-adv-x="325" 
d="M269 -107l-171 0.000976562c-19.333 0 -37.333 8 -54 24c-16 14.667 -24 32 -24 52v802c0 19.333 8 36.666 24 51.999c16.667 16 34.667 24 54 24h170l37 -153h-59v-647h59z" />
    <glyph glyph-name="parenright" unicode=")" horiz-adv-x="325" 
d="M20 47h59v647h-59l37 153h170c19.333 0 37 -8 53 -24c16.667 -14.667 25 -32 25 -52v-802c0 -20 -8.33301 -37.333 -25 -52c-16 -16 -33.667 -24 -53 -24h-171z" />
    <glyph glyph-name="asterisk" unicode="*" horiz-adv-x="486" 
d="M397 636l67 -39l-77 -133l-67 40v-80h-154v80l-67 -40l-78 133l69 39l-70 41l78 132l68 -39v78h154v-79l68 40l78 -132z" />
    <glyph glyph-name="plus" unicode="+" horiz-adv-x="687" 
d="M459 307v-208h-231v208h-208v231h208v208h231v-208h208v-231h-208z" />
    <glyph glyph-name="comma" unicode="," horiz-adv-x="266" 
d="M147 -100h-65v100h-62v232h226v-207z" />
    <glyph glyph-name="hyphen" unicode="-" horiz-adv-x="327" 
d="M20 307v231h287v-231h-287z" />
    <glyph glyph-name="period" unicode="." horiz-adv-x="266" 
d="M20 0v231h226v-231h-226z" />
    <glyph glyph-name="slash" unicode="/" horiz-adv-x="541" 
d="M251 -73h-231l270 918h231z" />
    <glyph glyph-name="zero" unicode="0" horiz-adv-x="571" 
d="M551 76c0 -10 -2.16699 -19.5 -6.5 -28.5s-10.166 -17 -17.499 -24s-15.5 -12.667 -24.5 -17s-18.5 -6.5 -28.5 -6.5h-378c-10 0 -19.5 2.16699 -28.5 6.5s-17 10 -24 17s-12.667 15 -17 24s-6.5 18.5 -6.5 28.5v695c0 10 2.16699 19.5 6.5 28.5s10 17 17 24
s15 12.667 24 17s18.5 6.5 28.5 6.5h378c10 0 19.5 -2.16699 28.5 -6.5s17.167 -10 24.5 -17s13.166 -15 17.499 -24s6.5 -18.5 6.5 -28.5v-695zM325 694h-81v-541h81v541z" />
    <glyph glyph-name="one" unicode="1" horiz-adv-x="343" 
d="M97 0v694h-77l37 153h266v-847h-226z" />
    <glyph glyph-name="two" unicode="2" horiz-adv-x="481" 
d="M424 0l-404 0.000976562l190 694h-162l37 153h298c20.667 0 38.5 -7.83301 53.5 -23.5s22.5 -33.834 22.5 -54.501c0 -4 -0.166992 -7.5 -0.5 -10.5s-0.833008 -5.83301 -1.5 -8.5l-163 -597h167z" />
    <glyph glyph-name="three" unicode="3" horiz-adv-x="470" 
d="M450 76c0 -10 -2.16699 -19.5 -6.5 -28.5s-10.166 -17 -17.499 -24s-15.5 -12.667 -24.5 -17s-18.5 -6.5 -28.5 -6.5h-317l-36 153h225v218h-173v153h173v170h-225l36 153h317c10 0 19.5 -2.16699 28.5 -6.5s17.167 -10 24.5 -17s13.166 -15 17.499 -24
s6.5 -18.5 6.5 -28.5v-237c0 -23.333 -19 -51 -57 -83c38 -27.333 57 -54 57 -80v-295v0z" />
    <glyph glyph-name="four" unicode="4" horiz-adv-x="585" 
d="M523 199v-199h-208v199h-295l293 648h210v-494h42v-154h-42zM315 480l-57 -127h57v127z" />
    <glyph glyph-name="five" unicode="5" horiz-adv-x="513" 
d="M493 76c0 -10 -2.16699 -19.5 -6.5 -28.5s-10 -17 -17 -24s-15 -12.667 -24 -17s-18.5 -6.5 -28.5 -6.5h-352l-36 153h259v218h-268v476h391l37 -153h-222v-170h191c10 0 19.5 -2.16699 28.5 -6.5s17 -10 24 -17s12.667 -15 17 -24s6.5 -18.5 6.5 -28.5v-372v0z" />
    <glyph glyph-name="six" unicode="6" horiz-adv-x="537" 
d="M517 76c0 -19.333 -8.33008 -37 -24.9971 -53c-16.667 -15.333 -34.334 -23 -53.001 -23h-343c-10 0 -19.5 2.16699 -28.5 6.5s-17 10 -24 17s-12.667 15 -17 24s-6.5 18.5 -6.5 28.5v695c0 10 2.16699 19.5 6.5 28.5s10 17 17 24s15 12.667 24 17s18.5 6.5 28.5 6.5h303
l37 -153h-192v-117h195c10 0 19.667 -2.16699 29 -6.5s17.666 -10 24.999 -17s13.166 -15.167 17.499 -24.5s6.5 -19 6.5 -29v-424zM291.003 424h-47v-271h47v271z" />
    <glyph glyph-name="seven" unicode="7" horiz-adv-x="539" 
d="M258 0h-233l215 694h-220l37 153h462z" />
    <glyph glyph-name="eight" unicode="8" horiz-adv-x="563" 
d="M543 76c0 -10 -2.16699 -19.499 -6.5 -28.499s-10 -17 -17 -24s-15 -12.667 -24 -17s-18.5 -6.5 -28.5 -6.5h-371c-10 0 -19.5 2.16699 -28.5 6.5s-17 10 -24 17s-12.667 15 -17 24s-6.5 18.5 -6.5 28.5v295c0 24.667 18.333 51.334 55 80.001
c-36.667 32 -55 59.667 -55 83v237c0 10 2.16699 19.5 6.5 28.5s10 17 17 24s15 12.667 24 17s18.5 6.5 28.5 6.5h371c10 0 19.5 -2.16699 28.5 -6.5s17 -10 24 -17s12.667 -15 17 -24s6.5 -18.5 6.5 -28.5v-237c0 -22.667 -18.333 -50.334 -55 -83.001
c36.667 -28.667 55 -55.334 55 -80.001v-295zM329 694.001h-95v-170h95v170zM329 371.001h-95v-218h95v218z" />
    <glyph glyph-name="nine" unicode="9" horiz-adv-x="537" 
d="M517 76c0 -19.333 -8.33203 -37 -24.999 -53c-16.667 -15.333 -34.334 -23 -53.001 -23h-366l-36 153h254v169h-195c-10 0 -19.5 2.16699 -28.5 6.5s-17 10 -24 17s-12.667 15 -17 24s-6.5 18.5 -6.5 28.5v373c0 10 2.16699 19.5 6.5 28.5s10 17 17 24s15 12.667 24 17
s18.5 6.5 28.5 6.5h343c19.333 0 37 -8 53 -24c16.667 -14.667 25 -32 25 -52v-695zM291.001 694h-47v-219h47v219z" />
    <glyph glyph-name="colon" unicode=":" horiz-adv-x="266" 
d="M20 308v231h226v-231h-226zM20 0v231h226v-231h-226z" />
    <glyph glyph-name="semicolon" unicode=";" horiz-adv-x="266" 
d="M20 308v231h226v-231h-226zM147 -100h-65v100h-62v232h226v-207z" />
    <glyph glyph-name="less" unicode="&#x3c;" horiz-adv-x="687" 
d="M20 297v262l647 248v-231l-386 -148l386 -148v-231z" />
    <glyph glyph-name="equal" unicode="=" horiz-adv-x="687" 
d="M20 441v231h647v-231h-647zM20 161v231h647v-231h-647z" />
    <glyph glyph-name="greater" unicode="&#x3e;" horiz-adv-x="687" 
d="M20 49v231l386 148l-386 148v231l647 -248v-262z" />
    <glyph glyph-name="question" unicode="?" horiz-adv-x="460" 
d="M440 543c0 -17.333 -9.66699 -34 -29 -50l-98 -81v-136h-224v121c0 18 9 34.667 27 50l98 81v166h-194v153h342c19.333 0 37 -8 53 -24c16.667 -16 25 -33.333 25 -52v-228zM85 0v230h226v-230h-226z" />
    <glyph glyph-name="at" unicode="@" horiz-adv-x="722" 
d="M702 256c0 -10 -2.16602 -19.5 -6.49902 -28.5s-10.166 -17 -17.499 -24s-15.5 -12.667 -24.5 -17s-18.5 -6.5 -28.5 -6.5h-340c-10 0 -19.5 2.16699 -28.5 6.5s-17 10 -24 17s-12.667 15 -17 24s-6.5 18.5 -6.5 28.5v163c0 10 2.16699 19.5 6.5 28.5s10 17 17 24
s15 12.667 24 17s18.5 6.5 28.5 6.5h75v18h-92v154h168c10 0 19.5 -2.16699 28.5 -6.5s17.167 -10 24.5 -17s13.166 -15 17.499 -24s6.5 -18.5 6.5 -28.5v-258h36v361h-376v-541h527l-36 -153h-568c-10 0 -19.5 2.16699 -28.5 6.5s-17 10 -24 17s-12.667 15 -17 24
s-6.5 18.5 -6.5 28.5v695c0 10 2.16699 19.5 6.5 28.5s10 17 17 24s15 12.667 24 17s18.5 6.5 28.5 6.5h529c10 0 19.5 -2.16699 28.5 -6.5s17.167 -10 24.5 -17s13.166 -15 17.499 -24s6.5 -18.5 6.5 -28.5v-515zM366.001 372h-31v-30h31v30z" />
    <glyph glyph-name="A" unicode="A" horiz-adv-x="671" 
d="M422 0l-13 58.999l-2 2h-144c0 0.666992 -4.66699 -19.666 -14 -60.999h-229l163 694h-76l35 153h309l200 -847h-229zM335 366.999l-36 -153h73z" />
    <glyph glyph-name="B" unicode="B" horiz-adv-x="556" 
d="M536 76c0 -10 -2.16797 -19.499 -6.50098 -28.499s-10.166 -17 -17.499 -24s-15.5 -12.667 -24.5 -17s-18.5 -6.5 -28.5 -6.5h-439v847h439c10 0 19.667 -2.16699 29 -6.5s17.5 -10 24.5 -17s12.667 -15 17 -24s6.5 -18.5 6.5 -28.5v-237
c0 -22.667 -18.333 -50.334 -55 -83.001c36.667 -28 55 -54.667 55 -80v-295zM330.999 694.001h-85v-170h85v170zM330.999 371.001h-85v-218h85v218z" />
    <glyph glyph-name="C" unicode="C" horiz-adv-x="443" 
d="M96 0c-10 0 -19.5 2.16699 -28.5 6.5s-17 10 -24 17s-12.667 15 -17 24s-6.5 18.5 -6.5 28.5v695c0 10 2.16699 19.5 6.5 28.5s10 17 17 24s15 12.667 24 17s18.5 6.5 28.5 6.5h327v-153h-178v-541h178v-153h-327z" />
    <glyph glyph-name="D" unicode="D" horiz-adv-x="571" 
d="M551 76c0 -10 -2.16699 -19.5 -6.5 -28.5s-10.166 -17 -17.499 -24s-15.5 -12.667 -24.5 -17s-18.5 -6.5 -28.5 -6.5h-454v847h454c10 0 19.5 -2.16699 28.5 -6.5s17.167 -10 24.5 -17s13.166 -15 17.499 -24s6.5 -18.5 6.5 -28.5v-695zM325 694h-81v-541h81v541z" />
    <glyph glyph-name="E" unicode="E" horiz-adv-x="405" 
d="M348 0h-328v847h328l37 -153h-139v-170h134v-153h-134v-218h139z" />
    <glyph glyph-name="F" unicode="F" horiz-adv-x="408" 
d="M246 694v-170h133v-153h-133v-371h-226v847h332l36 -153h-142z" />
    <glyph glyph-name="G" unicode="G" horiz-adv-x="537" 
d="M517 76c0 -19.333 -8.33203 -37 -24.999 -53c-16.667 -15.333 -34.334 -23 -53.001 -23h-343c-10 0 -19.5 2.16699 -28.5 6.5s-17 10 -24 17s-12.667 15 -17 24s-6.5 18.5 -6.5 28.5v695c0 10 2.16699 19.5 6.5 28.5s10 17 17 24s15 12.667 24 17s18.5 6.5 28.5 6.5h362
l35 -153h-249v-541h47v358h226v-435v0z" />
    <glyph glyph-name="H" unicode="H" horiz-adv-x="571" 
d="M325 0v448h-81v-448h-224v847h224v-245h81v245h226v-847h-226z" />
    <glyph glyph-name="I" unicode="I" horiz-adv-x="266" 
d="M20 0v847h226v-847h-226z" />
    <glyph glyph-name="J" unicode="J" horiz-adv-x="537" 
d="M517 76c0 -19.333 -8.33203 -37 -24.999 -53c-16.667 -15.333 -34.334 -23 -53.001 -23h-343c-10 0 -19.5 2.16699 -28.5 6.5s-17 10 -24 17s-12.667 15 -17 24s-6.5 18.5 -6.5 28.5v176h224v-99h47v694h226v-771v0z" />
    <glyph glyph-name="K" unicode="K" horiz-adv-x="553" 
d="M308 0v345l-63 53v-398h-225v847h225v-154l100 154h183l-177 -272l182 -151v-424h-225z" />
    <glyph glyph-name="L" unicode="L" horiz-adv-x="402" 
d="M346 0h-326v847h225v-694h137z" />
    <glyph glyph-name="M" unicode="M" horiz-adv-x="808" 
d="M563 0v688h-46v-688h-225v688h-46v-688h-226v847h226v-56c5.33301 15.333 15 28.5 29 39.5s28.667 16.5 44 16.5h121c16.667 0 32.167 -6 46.5 -18s23.833 -26 28.5 -42c4 16 13.333 30 28 42s30.334 18 47.001 18h121c10 0 19.5 -2.16699 28.5 -6.5s17.167 -10 24.5 -17
s13.166 -15 17.499 -24s6.5 -18.5 6.5 -28.5v-771h-225z" />
    <glyph glyph-name="N" unicode="N" horiz-adv-x="572" 
d="M326 0l0.000976562 688h-81v-688h-225v847h225v-56c5.33301 15.333 15 28.5 29 39.5s29 16.5 45 16.5h156c10 0 19.5 -2.16699 28.5 -6.5s17.167 -10 24.5 -17s13.166 -15 17.499 -24s6.5 -18.5 6.5 -28.5v-771h-226z" />
    <glyph glyph-name="O" unicode="O" horiz-adv-x="571" 
d="M551 76c0 -10 -2.16699 -19.5 -6.5 -28.5s-10.166 -17 -17.499 -24s-15.5 -12.667 -24.5 -17s-18.5 -6.5 -28.5 -6.5h-378c-10 0 -19.5 2.16699 -28.5 6.5s-17 10 -24 17s-12.667 15 -17 24s-6.5 18.5 -6.5 28.5v695c0 10 2.16699 19.5 6.5 28.5s10 17 17 24
s15 12.667 24 17s18.5 6.5 28.5 6.5h378c10 0 19.5 -2.16699 28.5 -6.5s17.167 -10 24.5 -17s13.166 -15 17.499 -24s6.5 -18.5 6.5 -28.5v-695zM325 694h-81v-541h81v541z" />
    <glyph glyph-name="P" unicode="P" horiz-adv-x="556" 
d="M536 405c0 -10 -2.16699 -19.5 -6.5 -28.5s-10.166 -17 -17.499 -24s-15.5 -12.667 -24.5 -17s-18.5 -6.5 -28.5 -6.5h-213v-329h-226v847h439c10 0 19.5 -2.16699 28.5 -6.5s17.167 -10 24.5 -17s13.166 -15 17.499 -24s6.5 -18.5 6.5 -28.5v-366zM331 694h-85v-211h85
v211z" />
    <glyph glyph-name="Q" unicode="Q" horiz-adv-x="571" 
d="M551 76c0 -10 -2.16699 -19.5 -6.5 -28.5s-10 -17 -17 -24s-15 -12.667 -24 -17s-18.5 -6.5 -28.5 -6.5h-17l39 -116h-233l-40 116h-127c-10 0 -19.5 2.16699 -28.5 6.5s-17.167 10 -24.5 17s-13.166 15 -17.499 24s-6.5 18.5 -6.5 28.5v695c0 10 2.16699 19.5 6.5 28.5
s10.166 17 17.499 24s15.5 12.667 24.5 17s18.5 6.5 28.5 6.5h378c10 0 19.5 -2.16699 28.5 -6.5s17 -10 24 -17s12.667 -15 17 -24s6.5 -18.5 6.5 -28.5v-695zM326 694h-81v-541h81v541z" />
    <glyph glyph-name="R" unicode="R" horiz-adv-x="613" 
d="M360 0l-110.999 328h-5v-328h-224v847h439c10 0 19.5 -2.16699 28.5 -6.5s17 -10 24 -17s12.667 -15 17 -24s6.5 -18.5 6.5 -28.5v-367c0 -15.333 -5.33301 -29.833 -16 -43.5s-23.334 -23.167 -38.001 -28.5l112 -332h-233zM330.001 694h-86v-212h86v212z" />
    <glyph glyph-name="S" unicode="S" horiz-adv-x="505" 
d="M263 694v-169.999h118c10 0 19.5 -2.16699 28.5 -6.5s17.167 -10 24.5 -17s13.166 -15 17.499 -24s6.5 -18.5 6.5 -28.5v-372c0 -10 -2.16699 -19.5 -6.5 -28.5s-10.166 -17 -17.499 -24s-15.5 -12.667 -24.5 -17s-18.5 -6.5 -28.5 -6.5h-325l-36 153h213v218h-118
c-10 0 -19.5 2.16699 -28.5 6.5s-17 10.166 -24 17.499s-12.667 15.5 -17 24.5s-6.5 18.5 -6.5 28.5v323c0 10 2.16699 19.5 6.5 28.5s10 17 17 24s15 12.667 24 17s18.5 6.5 28.5 6.5h335l35 -153h-222z" />
    <glyph glyph-name="T" unicode="T" horiz-adv-x="541" 
d="M383 694v-694h-226v694h-137l37 153h427l37 -153h-138z" />
    <glyph glyph-name="U" unicode="U" horiz-adv-x="571" 
d="M551 76c0 -10 -2.16797 -19.5 -6.50098 -28.5s-10.166 -17 -17.499 -24s-15.5 -12.667 -24.5 -17s-18.5 -6.5 -28.5 -6.5h-378c-10 0 -19.5 2.16699 -28.5 6.5s-17 10 -24 17s-12.667 15 -17 24s-6.5 18.5 -6.5 28.5v771h224v-694h81v694h226v-771v0z" />
    <glyph glyph-name="V" unicode="V" horiz-adv-x="671" 
d="M451 0h-231l-200 847h229l87 -367l86 367h229z" />
    <glyph glyph-name="W" unicode="W" horiz-adv-x="808" 
d="M788 78c0 -19.333 -8 -37.333 -24 -54c-16 -16 -33.667 -24 -53 -24h-233c-16 0 -31.167 6 -45.5 18s-23.833 26 -28.5 42c-4.66699 -16 -14.167 -30 -28.5 -42s-29.5 -18 -45.5 -18h-234c-19.333 0 -37 8 -53 24c-15.333 17.333 -23 35.333 -23 54v769h226v-687h46v687
h224v-687h47v687h225v-769v0z" />
    <glyph glyph-name="X" unicode="X" horiz-adv-x="571" 
d="M320 0v371h-69v-371h-231v371c0 25.333 18.667 52 56 80c-37.333 31.333 -56 59 -56 83v313h231v-323h69v323h231v-313c0 -24 -18.667 -51.667 -56 -83c37.333 -29.333 56 -56 56 -80v-371h-231z" />
    <glyph glyph-name="Y" unicode="Y" horiz-adv-x="701" 
d="M451 0h-231l75 275h-86c-8 0 -16 1.66699 -24 5s-15.5 7.83301 -22.5 13.5s-13 12.167 -18 19.5s-8.5 15 -10.5 23l-114 511h228l91 -407l112 407h230z" />
    <glyph glyph-name="Z" unicode="Z" horiz-adv-x="501" 
d="M292 153h188v-153h-460l189 694h-167v153h439z" />
    <glyph glyph-name="bracketleft" unicode="[" horiz-adv-x="382" 
d="M326 -110h-306v957h306l36 -153h-117v-651h117z" />
    <glyph glyph-name="backslash" unicode="\" horiz-adv-x="541" 
d="M20 845h231l270 -918h-231z" />
    <glyph glyph-name="bracketright" unicode="]" horiz-adv-x="382" 
d="M20 43h117v651h-117l36 153h306v-957h-306z" />
    <glyph glyph-name="asciicircum" unicode="^" horiz-adv-x="18" 
 />
    <glyph glyph-name="underscore" unicode="_" horiz-adv-x="500" 
d="M499 -101h-499v101h499v-101z" />
    <glyph glyph-name="grave" unicode="`" horiz-adv-x="398" 
d="M336 747l-316 139l40 93l318 -137z" />
    <glyph glyph-name="a" unicode="a" horiz-adv-x="577" 
d="M362 0l-11 50l-2 2h-122c0 -0.666992 -4 -18 -12 -52h-195l139 590h-65l30 130h263l170 -720h-195zM288 312l-31 -130h62z" />
    <glyph glyph-name="b" unicode="b" horiz-adv-x="479" 
d="M459 65c0 -17.333 -6.66699 -32.499 -20 -45.499s-28.666 -19.5 -45.999 -19.5h-373v720h373c17.333 0 32.666 -6.5 45.999 -19.5s20 -28.167 20 -45.5v-201c0 -20 -15.667 -43.667 -47 -71c31.333 -22.667 47 -45.334 47 -68.001v-250zM285 590.001h-73v-145h73v145z
M285 315.001h-73v-185h73v185z" />
    <glyph glyph-name="c" unicode="c" horiz-adv-x="383" 
d="M85 0c-16.667 0 -31.667 6.5 -45 19.5s-20 28.167 -20 45.5v590c0 16.667 6.66699 31.667 20 45s28.333 20 45 20h278v-130h-151v-460h151v-130h-278z" />
    <glyph glyph-name="d" unicode="d" 
d="M472 65c0 -17.333 -6.83301 -32.5 -20.5 -45.5s-28.834 -19.5 -45.501 -19.5h-386v720h386c16.667 0 31.834 -6.66699 45.501 -20s20.5 -28.333 20.5 -45v-590zM280 590h-69v-460h69v460z" />
    <glyph glyph-name="e" unicode="e" horiz-adv-x="351" 
d="M299 0h-279v720h279l32 -130h-119v-145h114v-130h-114v-185h119z" />
    <glyph glyph-name="f" unicode="f" horiz-adv-x="353" 
d="M212 590v-145h113v-130h-113v-315h-192v720h282l31 -130h-121z" />
    <glyph glyph-name="g" unicode="g" horiz-adv-x="463" 
d="M443 65c0 -17.333 -7.33301 -32.333 -22 -45c-13.333 -13.333 -28.333 -20 -45 -20h-291c-16.667 0 -31.667 6.5 -45 19.5s-20 28.167 -20 45.5v590c0 16.667 6.66699 31.667 20 45s28.333 20 45 20h308l29 -130h-211v-460h40v304h192v-369v0z" />
    <glyph glyph-name="h" unicode="h" 
d="M280 0v381h-69v-381h-191v720h191v-208h69v208h192v-720h-192z" />
    <glyph glyph-name="i" unicode="i" horiz-adv-x="232" 
d="M20 0v720h192v-720h-192z" />
    <glyph glyph-name="j" unicode="j" horiz-adv-x="463" 
d="M443 65c0 -17.333 -7.33301 -32.333 -22 -45c-13.333 -13.333 -28.333 -20 -45 -20h-291c-16.667 0 -31.667 6.5 -45 19.5s-20 28.167 -20 45.5v149h191v-84h40v590h192v-655v0z" />
    <glyph glyph-name="k" unicode="k" horiz-adv-x="476" 
d="M265 0v293l-53 45v-338h-192v720h192v-131l85 131h155l-150 -231l154 -129v-360h-191z" />
    <glyph glyph-name="l" unicode="l" horiz-adv-x="348" 
d="M297 0h-277v720h192v-590h116z" />
    <glyph glyph-name="m" unicode="m" horiz-adv-x="693" 
d="M482 0l0.00195312 585.001h-39v-585h-192v585h-39v-585h-192v720h192v-48c5.33301 13.333 13.666 24.666 24.999 33.999s23.666 14 36.999 14h103c14 0 27.167 -5.16699 39.5 -15.5s20.5 -22.166 24.5 -35.499c3.33301 13.333 11.333 25.166 24 35.499s26 15.5 40 15.5
h103c16.667 0 31.667 -6.66699 45 -20s20 -28.333 20 -45v-655h-191z" />
    <glyph glyph-name="n" unicode="n" 
d="M280 0l-0.000976562 585.001h-68v-585h-192v720h192v-48c4.66699 13.333 12.834 24.666 24.501 33.999s24.167 14 37.5 14h133c16.667 0 31.667 -6.66699 45 -20s20 -28.333 20 -45v-655h-192z" />
    <glyph glyph-name="o" unicode="o" 
d="M472 65c0 -17.333 -6.83301 -32.5 -20.5 -45.5s-28.834 -19.5 -45.501 -19.5h-321c-16.667 0 -31.667 6.5 -45 19.5s-20 28.167 -20 45.5v590c0 16.667 6.66699 31.667 20 45s28.333 20 45 20h321c16.667 0 31.834 -6.66699 45.501 -20s20.5 -28.333 20.5 -45v-590z
M280 590h-69v-460h69v460z" />
    <glyph glyph-name="p" unicode="p" horiz-adv-x="479" 
d="M459 344c0 -16.667 -6.66699 -31.5 -20 -44.5s-28.666 -19.5 -45.999 -19.5h-181v-280h-192v720h373c17.333 0 32.666 -6.66699 45.999 -20s20 -28.333 20 -45v-311zM285 590h-73v-179h73v179z" />
    <glyph glyph-name="q" unicode="q" 
d="M472 65c0 -17.333 -6.66699 -32.5 -20 -45.5s-28.333 -19.5 -45 -19.5h-14l33 -99h-198l-34 99h-108c-16.667 0 -31.834 6.5 -45.501 19.5s-20.5 28.167 -20.5 45.5v590c0 16.667 6.83301 31.667 20.5 45s28.834 20 45.501 20h321c16.667 0 31.667 -6.66699 45 -20
s20 -28.333 20 -45v-590zM280 590h-68v-460h68v460z" />
    <glyph glyph-name="r" unicode="r" horiz-adv-x="527" 
d="M309 0l-94 279h-4v-279h-191v720h373c17.333 0 32.5 -6.66699 45.5 -20s19.5 -28.333 19.5 -45v-312c0 -13.333 -4.5 -25.5 -13.5 -36.5s-19.833 -19.167 -32.5 -24.5l95 -282h-198zM284 590h-73v-180h73v180z" />
    <glyph glyph-name="s" unicode="s" horiz-adv-x="436" 
d="M227 590v-145.001h100c16.667 0 31.834 -6.5 45.501 -19.5s20.5 -27.833 20.5 -44.5v-316c0 -17.333 -6.83301 -32.5 -20.5 -45.5s-28.834 -19.5 -45.501 -19.5h-276l-31 130h181v185h-100c-16.667 0 -31.667 6.83301 -45 20.5s-20 28.834 -20 45.501v274
c0 16.667 6.66699 31.667 20 45s28.333 20 45 20h285l30 -130h-189z" />
    <glyph glyph-name="t" unicode="t" horiz-adv-x="466" 
d="M329 590v-590h-192v590h-117l32 130h363l31 -130h-117z" />
    <glyph glyph-name="u" unicode="u" 
d="M472 65c0 -17.333 -6.83203 -32.5 -20.499 -45.5s-28.834 -19.5 -45.501 -19.5h-321c-16.667 0 -31.667 6.5 -45 19.5s-20 28.167 -20 45.5v655h191v-590h69v590h192v-655v0z" />
    <glyph glyph-name="v" unicode="v" horiz-adv-x="577" 
d="M387 0h-197l-170 720h195l74 -312l73 312h195z" />
    <glyph glyph-name="w" unicode="w" horiz-adv-x="693" 
d="M673 66c0 -15.333 -6.66895 -30.666 -20.002 -45.999c-14.667 -13.333 -29.667 -20 -45 -20h-198c-14 0 -27.167 5.16699 -39.5 15.5s-20.166 22.166 -23.499 35.499c-4 -13.333 -12.167 -25.166 -24.5 -35.499s-25.166 -15.5 -38.499 -15.5h-199
c-16.667 0 -31.667 6.66699 -45 20c-13.333 15.333 -20 30.666 -20 45.999v654h192v-584h39v584h191v-584h40v584h191v-654v0z" />
    <glyph glyph-name="x" unicode="x" 
d="M275 0v315h-58v-315h-197v315c0 22 16 44.667 48 68c-32 26.667 -48 50.334 -48 71.001v266h197v-275h58v275h197v-266c0 -19.333 -16 -43 -48 -71c32 -24.667 48 -47.334 48 -68.001v-315h-197z" />
    <glyph glyph-name="y" unicode="y" horiz-adv-x="602" 
d="M387 0h-197l64 234h-73c-13.333 0 -26.5 5.33301 -39.5 16s-21.167 22.667 -24.5 36l-97 434h194l77 -346l96 346h195z" />
    <glyph glyph-name="z" unicode="z" horiz-adv-x="432" 
d="M251 130h160v-130h-391l161 590h-142v130h373z" />
    <glyph glyph-name="braceleft" unicode="{" horiz-adv-x="435" 
d="M188 -110c-10 0 -19.5 2.16699 -28.5 6.5s-17 10 -24 17s-12.667 15 -17 24s-6.5 18.5 -6.5 28.5v259c0 11.333 -2.66699 21.833 -8 31.5s-12.333 18 -21 25s-18.5 12.5 -29.5 16.5s-22.167 6 -33.5 6v103c11.333 0 22.5 1.83301 33.5 5.5s20.833 9 29.5 16
s15.667 15.333 21 25s8 20.167 8 31.5v286c0 10 2.16699 19.5 6.5 28.5s10 17 17 24s15 12.667 24 17s18.5 6.5 28.5 6.5h227v-153h-78v-254l-97 -82l97 -88v-227h78v-153h-227z" />
    <glyph glyph-name="bar" unicode="|" horiz-adv-x="36" 
 />
    <glyph glyph-name="braceright" unicode="}" horiz-adv-x="435" 
d="M20 -110v153h78v227l97 88l-97 82v254h-78v153h227c10 0 19.5 -2.16699 28.5 -6.5s17 -10 24 -17s12.667 -15 17 -24s6.5 -18.5 6.5 -28.5v-286c0 -11.333 2.66699 -21.833 8 -31.5s12.333 -18 21 -25s18.5 -12.333 29.5 -16s22.167 -5.5 33.5 -5.5v-103
c-11.333 0 -22.5 -2 -33.5 -6s-20.833 -9.5 -29.5 -16.5s-15.667 -15.333 -21 -25s-8 -20.167 -8 -31.5v-259c0 -10 -2.16699 -19.5 -6.5 -28.5s-10 -17 -17 -24s-15 -12.667 -24 -17s-18.5 -6.5 -28.5 -6.5h-227z" />
    <glyph glyph-name="asciitilde" unicode="~" horiz-adv-x="36" 
 />
    <glyph glyph-name="exclamdown" unicode="&#xa1;" horiz-adv-x="332" 
d="M78 488h177l57 -579h-292zM279 756v-230h-225v230h225z" />
    <glyph glyph-name="cent" unicode="&#xa2;" horiz-adv-x="451" 
d="M395 172h-82v-172h-157v172h-59c-10 0 -19.5 2.16699 -28.5 6.5s-17.167 10 -24.5 17s-13.166 15 -17.499 24s-6.5 18.5 -6.5 28.5v351c0 10 2.16699 19.5 6.5 28.5s10.166 17 17.499 24s15.5 12.667 24.5 17s18.5 6.5 28.5 6.5h59v172h157v-172h82l36 -153h-194v-196
h194z" />
    <glyph glyph-name="sterling" unicode="&#xa3;" horiz-adv-x="490" 
d="M434 0l-406.001 -0.000976562v153h49l7 119h-64v102h70l25 401c0.666992 8.66699 3.33398 17.334 8.00098 26.001s10.5 16.5 17.5 23.5s14.833 12.5 23.5 16.5s17.667 6 27 6h188l37 -153h-80l-20 -320h85v-102h-91l-7 -119h167z" />
    <glyph glyph-name="currency" unicode="&#xa4;" horiz-adv-x="545" 
d="M485 437h-164v-27h154l-38 -101h-116v-156h161l-36 -153h-274c-10 0 -19.5 2.16699 -28.5 6.5s-17.167 10 -24.5 17s-13.166 15 -17.499 24s-6.5 18.5 -6.5 28.5v233h-75l39 101h36v27h-69l38 102h31v232c0 10 2.16699 19.5 6.5 28.5s10.166 17 17.499 24
s15.5 12.667 24.5 17s18.5 6.5 28.5 6.5h274l36 -153h-161v-155h204z" />
    <glyph glyph-name="yen" unicode="&#xa5;" horiz-adv-x="730" 
d="M516 309l-38 -36v-273h-226v273l-38 36h-194v101h107l-11 27h-96v102h83v308h225v-435l37 -35l37 35v435h226v-308h82v-102h-97c-2 -6.66699 -5.66699 -15.667 -11 -27h108v-101h-194z" />
    <glyph glyph-name="brokenbar" unicode="&#xa6;" horiz-adv-x="18" 
 />
    <glyph glyph-name="section" unicode="&#xa7;" horiz-adv-x="1531" 
d="M1511 822v-349h-102v246h-60v103h162zM1163 391c-7.33301 0 -11 -3.66602 -11 -10.999c0 -6.66699 3.66699 -10 11 -10h205v-50h-205c-7.33301 0 -11 -3.33301 -11 -10c0 -7.33301 3.66699 -11 11 -11h205v-50h-205c-16.667 0 -30.834 5.83301 -42.501 17.5
s-17.5 26.167 -17.5 43.5c0 13.333 4 24.666 12 33.999c-8 10 -12 22 -12 36c0 16.667 5.83301 30.667 17.5 42s25.834 17 42.501 17h205v-48h-205zM429 370.001l-0.000976562 -50h-216v-71h-50v131c0 16.667 5.83301 30.667 17.5 42s25.834 17 42.501 17h206v-48h-206
c-6.66699 0 -10 -3.66699 -10 -11v-10h216zM474.999 439.001h279v-65c0 -19.333 -6.5 -36.333 -19.5 -51s-29.167 -23 -48.5 -25l46 -49h-67l-46 49h-71v50h131c7.33301 0 13.5 2.5 18.5 7.5s7.5 11.167 7.5 18.5v16h-181v-141h-49v190zM855.999 391.001
c-7.33301 0 -11 -3.66602 -11 -10.999c0 -6.66699 3.66699 -10 11 -10h205v-50h-205c-7.33301 0 -11 -3.33301 -11 -10c0 -7.33301 3.66699 -11 11 -11h205v-50h-205c-17.333 0 -31.666 5.83301 -42.999 17.5s-17 26.167 -17 43.5c0 13.333 3.66699 24.666 11 33.999
c-7.33301 10.667 -11 22.667 -11 36c0 16.667 5.66699 30.667 17 42s25.666 17 42.999 17h205v-48h-205zM1208 217.002v-50h-139v-91h59v-50h-109v141h-85v50h274zM1416 76.002c16 0 29.002 6.99805 39.002 20.998h-213v24c0 13.333 2.5 25.833 7.5 37.5
s11.833 21.834 20.5 30.501s18.667 15.5 30 20.5s23.666 7.5 36.999 7.5h174v-50h-174c-16.667 0 -29.334 -7 -38.001 -21h212v-25c0 -13.333 -2.5 -25.666 -7.5 -36.999s-11.667 -21.333 -20 -30s-18.333 -15.5 -30 -20.5s-24.167 -7.5 -37.5 -7.5h-174v50h174z
M286.001 146l-0.000976562 -49h-216v-71h-50v131c0 16 5.83301 30 17.5 42s25.834 18 42.501 18h206v-50h-206c-6.66699 0 -10 -3.33301 -10 -10v-11h216zM892 26h-72.999c-5.33301 22 -13.333 41.5 -24 58.5s-25.667 32.833 -45 47.5
c-11.333 8.66699 -23.5 15.834 -36.5 21.501s-26.833 9.5 -41.5 11.5v-139h-49v190h27c23.333 0 46.166 -4 68.499 -12s42.833 -19 61.5 -33c25.333 -20.667 46.333 -45.334 63 -74.001v120h49v-191zM578.001 216l-0.000976562 -86.999c0 -14 -2.66699 -27.333 -8 -40
s-12.666 -23.667 -21.999 -33s-20.166 -16.666 -32.499 -21.999s-25.5 -8 -39.5 -8h-162v88c0 14 2.66699 27.167 8 39.5s12.666 23.166 21.999 32.499s20.333 16.666 33 21.999s26 8 40 8h161zM417 167.001c-14.667 0 -27.167 -5.16699 -37.5 -15.5
s-15.5 -22.833 -15.5 -37.5v-38h112c14.667 0 27.167 5 37.5 15s15.5 22.667 15.5 38v38h-112zM183 822.001v-349h-104v246h-59v103h163zM1279 822.001v-162c0 -26 -5 -50.333 -15 -73s-23.5 -42.5 -40.5 -59.5s-36.833 -30.333 -59.5 -40s-47 -14.5 -73 -14.5h-290v161
c0 26 4.83301 50.333 14.5 73s23 42.5 40 59.5s37 30.5 60 40.5s47.5 15 73.5 15h290zM989 719.001c-23.333 0 -43.333 -8.33301 -60 -25s-25 -36.667 -25 -60v-59h187c23.333 0 43.333 8.33301 60 25s25 36.667 25 60v59h-187zM731 822.001v-162c0 -26 -5 -50.333 -15 -73
s-23.5 -42.5 -40.5 -59.5s-36.833 -30.333 -59.5 -40s-47 -14.5 -73 -14.5h-290v161c0 26 5 50.333 15 73s23.5 42.5 40.5 59.5s36.833 30.5 59.5 40.5s47 15 73 15h290zM441 719.001c-23.333 0 -43.333 -8.33301 -60 -25s-25 -36.667 -25 -60v-59h187
c11.333 0 22.166 2.16699 32.499 6.5s19.333 10.333 27 18s13.834 16.667 18.501 27s7 21.5 7 33.5v59h-187z" />
    <glyph glyph-name="dieresis" unicode="&#xa8;" horiz-adv-x="315" 
d="M295 809c0 -17.333 -6.16699 -32 -18.5 -44s-27.166 -18 -44.499 -18c-16.667 0 -31 6.16699 -43 18.5s-18 26.833 -18 43.5s6 31 18 43s26.333 18 43 18c17.333 0 32.166 -5.83301 44.499 -17.5s18.5 -26.167 18.5 -43.5zM145 809
c0 -16.667 -6.16895 -31.167 -18.502 -43.5s-26.833 -18.5 -43.5 -18.5c-17.333 0 -32.166 6 -44.499 18s-18.5 26.667 -18.5 44c0 16.667 6.33301 31 19 43s27.334 18 44.001 18s31.167 -6 43.5 -18s18.5 -26.333 18.5 -43z" />
    <glyph glyph-name="copyright" unicode="&#xa9;" horiz-adv-x="891" 
d="M20 425c0 58.667 11.167 113.834 33.5 165.501s52.666 96.834 90.999 135.501s83.333 69.167 135 91.5s106.834 33.5 165.501 33.5s113.834 -11.167 165.501 -33.5s96.834 -52.833 135.501 -91.5s69.167 -83.834 91.5 -135.501s33.5 -106.834 33.5 -165.501
s-11.167 -113.834 -33.5 -165.501s-52.833 -96.667 -91.5 -135s-83.834 -68.666 -135.501 -90.999s-106.834 -33.5 -165.501 -33.5s-113.834 11.167 -165.501 33.5s-96.667 52.666 -135 90.999s-68.666 83.333 -90.999 135s-33.5 106.834 -33.5 165.501zM74 425
c0 -51.333 9.66699 -99.5 29 -144.5s45.833 -84.333 79.5 -118s73 -60.167 118 -79.5s93.167 -29 144.5 -29s99.5 9.66699 144.5 29s84.333 45.833 118 79.5s60.334 73 80.001 118s29.5 93.167 29.5 144.5s-9.83301 99.5 -29.5 144.5s-46.334 84.333 -80.001 118
s-73 60.334 -118 80.001s-93.167 29.5 -144.5 29.5s-99.5 -9.83301 -144.5 -29.5s-84.333 -46.334 -118 -80.001s-60.167 -73 -79.5 -118s-29 -93.167 -29 -144.5zM350 116c-14.667 0 -27.667 5.66699 -39 17s-17 24 -17 38v503c0 14 5.66699 26.667 17 38s24.333 17 39 17
h236v-111h-128v-391h128v-111h-236z" />
    <glyph glyph-name="ordfeminine" unicode="&#xaa;" horiz-adv-x="356" 
d="M221 423l-6 30l-1 1h-72c0 -2 -2.33301 -12.333 -7 -31h-115l82 347h-38l17 77h155l100 -424h-115zM178 607l-18 -77h36z" />
    <glyph glyph-name="guillemotleft" unicode="&#xab;" horiz-adv-x="416" 
d="M274 242l-114 182l114 181h122l-116 -181l116 -182h-122zM134 242l-114 182l114 181h122l-116 -181l116 -182h-122z" />
    <glyph glyph-name="logicalnot" unicode="&#xac;" horiz-adv-x="687" 
d="M667 169h-231v138h-416v231h647v-369z" />
    <glyph glyph-name="registered" unicode="&#xae;" horiz-adv-x="488" 
d="M20 623c0 30.667 5.83301 59.667 17.5 87s27.667 51.166 48 71.499s44 36.333 71 48s56.167 17.5 87.5 17.5c30.667 0 59.667 -5.83301 87 -17.5s51.166 -27.667 71.499 -48s36.333 -44.166 48 -71.499s17.5 -56.333 17.5 -87c0 -31.333 -5.83301 -60.5 -17.5 -87.5
s-27.667 -50.667 -48 -71s-44.166 -36.333 -71.499 -48s-56.333 -17.5 -87 -17.5c-31.333 0 -60.5 5.83301 -87.5 17.5s-50.667 27.667 -71 48s-36.333 44 -48 71s-17.5 56.167 -17.5 87.5zM58 623c0 -26 4.83301 -50.167 14.5 -72.5s23 -42 40 -59s36.667 -30.333 59 -40
s46.5 -14.5 72.5 -14.5s50.167 4.83301 72.5 14.5s42 23 59 40s30.333 36.667 40 59s14.5 46.5 14.5 72.5s-4.83301 50.167 -14.5 72.5s-23 42 -40 59s-36.667 30.333 -59 40s-46.5 14.5 -72.5 14.5s-50.167 -4.83301 -72.5 -14.5s-42 -23 -59 -40s-30.333 -36.667 -40 -59
s-14.5 -46.5 -14.5 -72.5zM268 489l-38 106.001v-106h-72v273h142c6 0 11.5 -2.33301 16.5 -7s7.5 -10.334 7.5 -17.001v-119c0 -5.33301 -1.66699 -10 -5 -14s-7.33301 -7 -12 -9l36 -107h-75zM258 713.001h-28v-68h28v68z" />
    <glyph glyph-name="degree" unicode="&#xb0;" horiz-adv-x="306" 
d="M286 602c0 -9.33301 -4.16699 -18 -12.5 -26s-17.166 -12 -26.499 -12h-189c-9.33301 0 -18 4 -26 12s-12 16.667 -12 26v208c0 9.33301 4 18 12 26s16.667 12 26 12h189c9.33301 0 18.166 -4 26.499 -12s12.5 -16.667 12.5 -26v-208zM173 771h-41v-130h41v130z" />
    <glyph glyph-name="plusminus" unicode="&#xb1;" horiz-adv-x="687" 
d="M459 307v-76h208v-231h-647v231h208v76h-208v231h208v208h231v-208h208v-231h-208z" />
    <glyph glyph-name="twosuperior" unicode="&#xb2;" horiz-adv-x="238" 
d="M202 467l-182 -0.000976562l85 312h-72l16 69h134c9.33301 0 17.5 -3.5 24.5 -10.5s10.5 -15.167 10.5 -24.5c0 -2 -0.166992 -3.66699 -0.5 -5s-0.5 -2.66602 -0.5 -3.99902l-74 -268h75z" />
    <glyph glyph-name="threesuperior" unicode="&#xb3;" horiz-adv-x="233" 
d="M213 498c0 -8.66699 -3.5 -16.5 -10.5 -23.5s-14.833 -10.5 -23.5 -10.5h-143l-16 69h101v98h-78v69h78v76h-101l16 69h143c8.66699 0 16.5 -3.5 23.5 -10.5s10.5 -14.833 10.5 -23.5v-107c0 -10.667 -8.33301 -23 -25 -37c16.667 -12 25 -24 25 -36v-133v0z" />
    <glyph glyph-name="acute" unicode="&#xb4;" horiz-adv-x="398" 
d="M62 747l-42 95l318 137l40 -93z" />
    <glyph glyph-name="mu" unicode="&#xb5;" 
d="M20 720h191.001v-590h69v590h192v-655c0 -17.333 -6.83301 -32.5 -20.5 -45.5s-28.834 -19.5 -45.501 -19.5h-195v-86h-191v806z" />
    <glyph glyph-name="mu" unicode="&#x3bc;" 
d="M20 720h191.001v-590h69v590h192v-655c0 -17.333 -6.83301 -32.5 -20.5 -45.5s-28.834 -19.5 -45.501 -19.5h-195v-86h-191v806z" />
    <glyph glyph-name="paragraph" unicode="&#xb6;" horiz-adv-x="661" 
d="M505 -110v817h-59v-817h-136v110h-213c-10 0 -19.5 2.16699 -28.5 6.5s-17.167 10 -24.5 17s-13.166 15 -17.499 24s-6.5 18.5 -6.5 28.5v695c0 10 2.16699 19.5 6.5 28.5s10.166 17 17.499 24s15.5 12.667 24.5 17s18.5 6.5 28.5 6.5h544v-957h-136z" />
    <glyph glyph-name="periodcentered" unicode="&#xb7;" horiz-adv-x="266" 
d="M20 308v231h226v-231h-226z" />
    <glyph glyph-name="cedilla" unicode="&#xb8;" horiz-adv-x="292" 
d="M272 -214c0 -13.333 -5.16699 -25.332 -15.5 -35.999s-21.833 -16 -34.5 -16h-202v103h151v27h-107v205h102v-102h56c12.667 0 24.167 -5.33301 34.5 -16s15.5 -22.334 15.5 -35.001v-130v0z" />
    <glyph glyph-name="onesuperior" unicode="&#xb9;" horiz-adv-x="177" 
d="M55 467v312h-35l17 69h120v-381h-102z" />
    <glyph glyph-name="ordmasculine" unicode="&#xba;" horiz-adv-x="306" 
d="M286 462c0 -9.33301 -4.16699 -18 -12.5 -26s-17.166 -12 -26.499 -12h-189c-9.33301 0 -18 4 -26 12s-12 16.667 -12 26v348c0 9.33301 4 18 12 26s16.667 12 26 12h189c9.33301 0 18.166 -4 26.499 -12s12.5 -16.667 12.5 -26v-348zM173 771h-41v-270h41v270z" />
    <glyph glyph-name="guillemotright" unicode="&#xbb;" horiz-adv-x="416" 
d="M20 242l116 182l-116 181h122l114 -181l-114 -182h-122zM160 242l116 182l-116 181h122l114 -181l-114 -182h-122z" />
    <glyph glyph-name="onequarter" unicode="&#xbc;" horiz-adv-x="770" 
d="M68 313v437h-48l23 97h167v-534h-142zM274 0h-145l373 847h145zM723 125v-125h-131v125h-185l184 409h132v-312h27v-97h-27zM592 302l-36 -80h36v80z" />
    <glyph glyph-name="onehalf" unicode="&#xbd;" horiz-adv-x="834" 
d="M791 0l-253.999 0.000976562l119 437h-102l23 97h188c13.333 0 24.666 -5 33.999 -15s14 -21.667 14 -35c0 -2.66699 -0.166992 -4.83398 -0.5 -6.50098s-0.5 -3.5 -0.5 -5.5l-103 -376h105zM68.001 313.001v437h-48l23 97h167v-534h-142zM274.001 0.000976562h-145
l373 847h145z" />
    <glyph glyph-name="threequarters" unicode="&#xbe;" horiz-adv-x="835" 
d="M290 361c0 -12.667 -4.83301 -23.833 -14.5 -33.5s-20.834 -14.5 -33.501 -14.5h-200l-22 96h141v138h-109v96h109v107h-141l22 97h200c12.667 0 23.834 -5 33.501 -15s14.5 -21 14.5 -33v-150c0 -15.333 -11.667 -32.666 -35 -51.999
c23.333 -16.667 35 -33.334 35 -50.001v-186zM339 0.000976562h-145l373 847h145zM788 125.001v-125h-131v125h-185l184 409h132v-312h27v-97h-27zM657 302.001l-36 -80h36v80z" />
    <glyph glyph-name="questiondown" unicode="&#xbf;" horiz-adv-x="460" 
d="M20 213c0 17.333 9.66699 34.001 29 50.001l98 81v136h224v-121c0 -18.667 -9 -35.334 -27 -50.001l-98 -81v-166h194v-153h-342c-19.333 0 -37.333 8 -54 24c-16 16 -24 33.333 -24 52v228zM375 756.001v-230h-226v230h226z" />
    <glyph glyph-name="Agrave" unicode="&#xc0;" horiz-adv-x="671" 
d="M422 0l-13 58.999l-2 2h-144c0 0.666992 -4.66699 -19.666 -14 -60.999h-229l163 694h-76l35 153h309l200 -847h-229zM335 366.999l-36 -153h73zM472 873.999l-316 139l40 93l318 -137z" />
    <glyph glyph-name="Aacute" unicode="&#xc1;" horiz-adv-x="671" 
d="M422 0l-13 58.999l-2 2h-144c0 0.666992 -4.66699 -19.666 -14 -60.999h-229l163 694h-76l35 153h309l200 -847h-229zM335 366.999l-36 -153h73zM198 873.999l-42 95l318 137l40 -93z" />
    <glyph glyph-name="Acircumflex" unicode="&#xc2;" horiz-adv-x="671" 
d="M422 0l-13 58.999l-2 2h-144c0 0.666992 -4.66699 -19.666 -14 -60.999h-229l163 694h-76l35 153h309l200 -847h-229zM335 366.999l-36 -153h73zM467 873.999l-132 110l-130 -110l-66 79l196 165l197 -165z" />
    <glyph glyph-name="Atilde" unicode="&#xc3;" horiz-adv-x="671" 
d="M422 0l-13 58.999l-2 2h-144c0 0.666992 -4.66699 -19.666 -14 -60.999h-229l163 694h-76l35 153h309l200 -847h-229zM335 366.999l-36 -153h73zM500 913.999c-3.33301 -9.33301 -10.001 -17.333 -20.001 -24s-20 -10 -30 -10c-3.33301 0 -7.66602 0.666992 -12.999 2
l-185 58l-25 -71l-97 33l41 118c6.66699 22 25 33 55 33c2.66699 0 67 -19.667 193 -59l24 71l97 -33z" />
    <glyph glyph-name="Adieresis" unicode="&#xc4;" horiz-adv-x="671" 
d="M422 0l-13 58.999l-2 2h-144c0 0.666992 -4.66699 -19.666 -14 -60.999h-229l163 694h-76l35 153h309l200 -847h-229zM335 366.999l-36 -153h73zM473 935.999c0 -17.333 -6.16699 -32 -18.5 -44s-27.166 -18 -44.499 -18c-16.667 0 -31 6.16699 -43 18.5
s-18 26.833 -18 43.5s6 31 18 43s26.333 18 43 18c17.333 0 32.166 -5.83301 44.499 -17.5s18.5 -26.167 18.5 -43.5zM323 935.999c0 -16.667 -6.16895 -31.167 -18.502 -43.5s-26.833 -18.5 -43.5 -18.5c-17.333 0 -32.166 6 -44.499 18s-18.5 26.667 -18.5 44
c0 16.667 6.33301 31 19 43s27.334 18 44.001 18s31.167 -6 43.5 -18s18.5 -26.333 18.5 -43z" />
    <glyph glyph-name="Aring" unicode="&#xc5;" horiz-adv-x="671" 
d="M422 0l-13 58.999l-2 2h-144c0 0.666992 -4.66699 -19.666 -14 -60.999h-229l163 694h-76l35 153h309l200 -847h-229zM335 366.999l-36 -153h73zM476 1016c0 -19.333 -3.66699 -37.5 -11 -54.5s-17.5 -32 -30.5 -45s-28 -23.333 -45 -31s-35.167 -11.5 -54.5 -11.5
s-37.5 3.83301 -54.5 11.5s-31.833 18 -44.5 31s-22.667 28 -30 45s-11 35.167 -11 54.5c0 18.667 3.66699 36.5 11 53.5s17.333 31.833 30 44.5s27.5 22.667 44.5 30s35.167 11 54.5 11s37.5 -3.66699 54.5 -11s32 -17.333 45 -30s23.167 -27.5 30.5 -44.5
s11 -34.833 11 -53.5zM374 1016c0 10 -4.00098 18.833 -12.001 26.5s-17 11.5 -27 11.5s-18.833 -3.83301 -26.5 -11.5s-11.5 -16.5 -11.5 -26.5c0 -10.667 3.66699 -20 11 -28s16.333 -12 27 -12s19.834 4 27.501 12s11.5 17.333 11.5 28z" />
    <glyph glyph-name="AE" unicode="&#xc6;" horiz-adv-x="764" 
d="M610 371l-0.000976562 -218h127l-36 -153h-239c-10 0 -19.5 2.16699 -28.5 6.5s-17.167 10 -24.5 17s-13.166 15 -17.499 24s-6.5 18.5 -6.5 28.5v295h-79v-371h-224v371h-62v153h62v247c0 10 2.16699 19.5 6.5 28.5s10 17 17 24s15 12.667 24 17s18.5 6.5 28.5 6.5h543
l36 -153h-127v-170h134v-153h-134zM384.999 694h-79v-170h79v170z" />
    <glyph glyph-name="Ccedilla" unicode="&#xc7;" horiz-adv-x="443" 
d="M96 0c-10 0 -19.5 2.16699 -28.5 6.5s-17 10 -24 17s-12.667 15 -17 24s-6.5 18.5 -6.5 28.5v695c0 10 2.16699 19.5 6.5 28.5s10 17 17 24s15 12.667 24 17s18.5 6.5 28.5 6.5h327v-153h-178v-541h178v-153h-327zM385 -214c0 -13.333 -5.16699 -25.332 -15.5 -35.999
s-21.833 -16 -34.5 -16h-202v103h151v27h-107v205h102v-102h56c12.667 0 24.167 -5.33301 34.5 -16s15.5 -22.334 15.5 -35.001v-130v0z" />
    <glyph glyph-name="Egrave" unicode="&#xc8;" horiz-adv-x="405" 
d="M348 0h-328v847h328l37 -153h-139v-170h134v-153h-134v-218h139zM339 874l-316 139l40 93l318 -137z" />
    <glyph glyph-name="Eacute" unicode="&#xc9;" horiz-adv-x="405" 
d="M348 0h-328v847h328l37 -153h-139v-170h134v-153h-134v-218h139zM65 874l-42 95l318 137l40 -93z" />
    <glyph glyph-name="Ecircumflex" unicode="&#xca;" horiz-adv-x="405" 
d="M348 0h-328v847h328l37 -153h-139v-170h134v-153h-134v-218h139zM335 874l-132 110l-130 -110l-66 79l196 165l197 -165z" />
    <glyph glyph-name="Edieresis" unicode="&#xcb;" horiz-adv-x="405" 
d="M348 0h-328v847h328l37 -153h-139v-170h134v-153h-134v-218h139zM340 936c0 -17.333 -6.16699 -32 -18.5 -44s-27.166 -18 -44.499 -18c-16.667 0 -31 6.16699 -43 18.5s-18 26.833 -18 43.5s6 31 18 43s26.333 18 43 18c17.333 0 32.166 -5.83301 44.499 -17.5
s18.5 -26.167 18.5 -43.5zM190 936c0 -16.667 -6.16895 -31.167 -18.502 -43.5s-26.833 -18.5 -43.5 -18.5c-17.333 0 -32.166 6 -44.499 18s-18.5 26.667 -18.5 44c0 16.667 6.33301 31 19 43s27.334 18 44.001 18s31.167 -6 43.5 -18s18.5 -26.333 18.5 -43z" />
    <glyph glyph-name="Igrave" unicode="&#xcc;" horiz-adv-x="266" 
d="M20 0v847h226v-847h-226zM271 874l-316 139l40 93l318 -137z" />
    <glyph glyph-name="Iacute" unicode="&#xcd;" horiz-adv-x="266" 
d="M20 0v847h226v-847h-226zM-3 874l-42 95l318 137l40 -93z" />
    <glyph glyph-name="Icircumflex" unicode="&#xce;" horiz-adv-x="266" 
d="M20 0v847h226v-847h-226zM266 874l-132 110l-130 -110l-66 79l196 165l197 -165z" />
    <glyph glyph-name="Idieresis" unicode="&#xcf;" horiz-adv-x="266" 
d="M20 0v847h226v-847h-226zM272 936c0 -17.333 -6.16699 -32 -18.5 -44s-27.166 -18 -44.499 -18c-16.667 0 -31 6.16699 -43 18.5s-18 26.833 -18 43.5s6 31 18 43s26.333 18 43 18c17.333 0 32.166 -5.83301 44.499 -17.5s18.5 -26.167 18.5 -43.5zM122 936
c0 -16.667 -6.16895 -31.167 -18.502 -43.5s-26.833 -18.5 -43.5 -18.5c-17.333 0 -32.166 6 -44.499 18s-18.5 26.667 -18.5 44c0 16.667 6.33301 31 19 43s27.334 18 44.001 18s31.167 -6 43.5 -18s18.5 -26.333 18.5 -43z" />
    <glyph glyph-name="Eth" unicode="&#xd0;" horiz-adv-x="620" 
d="M600 76c0 -10 -2.16699 -19.5 -6.5 -28.5s-10 -17 -17 -24s-15 -12.667 -24 -17s-18.5 -6.5 -28.5 -6.5h-455v371h-49v153h49v323h455c10 0 19.5 -2.16699 28.5 -6.5s17 -10 24 -17s12.667 -15 17 -24s6.5 -18.5 6.5 -28.5v-695zM375 694h-80v-170h39v-153h-39v-218h80
v541z" />
    <glyph glyph-name="Ntilde" unicode="&#xd1;" horiz-adv-x="572" 
d="M326 0l0.000976562 688h-81v-688h-225v847h225v-56c5.33301 15.333 15 28.5 29 39.5s29 16.5 45 16.5h156c10 0 19.5 -2.16699 28.5 -6.5s17.167 -10 24.5 -17s13.166 -15 17.499 -24s6.5 -18.5 6.5 -28.5v-771h-226zM451.001 914
c-3.33301 -9.33301 -10.001 -17.333 -20.001 -24s-20 -10 -30 -10c-3.33301 0 -7.66602 0.666992 -12.999 2l-185 58l-25 -71l-97 33l41 118c6.66699 22 25 33 55 33c2.66699 0 67 -19.667 193 -59l24 71l97 -33z" />
    <glyph glyph-name="Ograve" unicode="&#xd2;" horiz-adv-x="571" 
d="M551 76c0 -10 -2.16699 -19.5 -6.5 -28.5s-10.166 -17 -17.499 -24s-15.5 -12.667 -24.5 -17s-18.5 -6.5 -28.5 -6.5h-378c-10 0 -19.5 2.16699 -28.5 6.5s-17 10 -24 17s-12.667 15 -17 24s-6.5 18.5 -6.5 28.5v695c0 10 2.16699 19.5 6.5 28.5s10 17 17 24
s15 12.667 24 17s18.5 6.5 28.5 6.5h378c10 0 19.5 -2.16699 28.5 -6.5s17.167 -10 24.5 -17s13.166 -15 17.499 -24s6.5 -18.5 6.5 -28.5v-695zM325 694h-81v-541h81v541zM422 874l-316 139l40 93l318 -137z" />
    <glyph glyph-name="Oacute" unicode="&#xd3;" horiz-adv-x="571" 
d="M551 76c0 -10 -2.16699 -19.5 -6.5 -28.5s-10.166 -17 -17.499 -24s-15.5 -12.667 -24.5 -17s-18.5 -6.5 -28.5 -6.5h-378c-10 0 -19.5 2.16699 -28.5 6.5s-17 10 -24 17s-12.667 15 -17 24s-6.5 18.5 -6.5 28.5v695c0 10 2.16699 19.5 6.5 28.5s10 17 17 24
s15 12.667 24 17s18.5 6.5 28.5 6.5h378c10 0 19.5 -2.16699 28.5 -6.5s17.167 -10 24.5 -17s13.166 -15 17.499 -24s6.5 -18.5 6.5 -28.5v-695zM325 694h-81v-541h81v541zM148 874l-42 95l318 137l40 -93z" />
    <glyph glyph-name="Ocircumflex" unicode="&#xd4;" horiz-adv-x="571" 
d="M551 76c0 -10 -2.16699 -19.5 -6.5 -28.5s-10.166 -17 -17.499 -24s-15.5 -12.667 -24.5 -17s-18.5 -6.5 -28.5 -6.5h-378c-10 0 -19.5 2.16699 -28.5 6.5s-17 10 -24 17s-12.667 15 -17 24s-6.5 18.5 -6.5 28.5v695c0 10 2.16699 19.5 6.5 28.5s10 17 17 24
s15 12.667 24 17s18.5 6.5 28.5 6.5h378c10 0 19.5 -2.16699 28.5 -6.5s17.167 -10 24.5 -17s13.166 -15 17.499 -24s6.5 -18.5 6.5 -28.5v-695zM325 694h-81v-541h81v541zM417 874l-132 110l-130 -110l-66 79l196 165l197 -165z" />
    <glyph glyph-name="Otilde" unicode="&#xd5;" horiz-adv-x="571" 
d="M551 76c0 -10 -2.16699 -19.5 -6.5 -28.5s-10.166 -17 -17.499 -24s-15.5 -12.667 -24.5 -17s-18.5 -6.5 -28.5 -6.5h-378c-10 0 -19.5 2.16699 -28.5 6.5s-17 10 -24 17s-12.667 15 -17 24s-6.5 18.5 -6.5 28.5v695c0 10 2.16699 19.5 6.5 28.5s10 17 17 24
s15 12.667 24 17s18.5 6.5 28.5 6.5h378c10 0 19.5 -2.16699 28.5 -6.5s17.167 -10 24.5 -17s13.166 -15 17.499 -24s6.5 -18.5 6.5 -28.5v-695zM325 694h-81v-541h81v541zM450 914c-3.33301 -9.33301 -10.001 -17.333 -20.001 -24s-20 -10 -30 -10
c-3.33301 0 -7.66602 0.666992 -12.999 2l-185 58l-25 -71l-97 33l41 118c6.66699 22 25 33 55 33c2.66699 0 67 -19.667 193 -59l24 71l97 -33z" />
    <glyph glyph-name="Odieresis" unicode="&#xd6;" horiz-adv-x="571" 
d="M551 76c0 -10 -2.16699 -19.5 -6.5 -28.5s-10.166 -17 -17.499 -24s-15.5 -12.667 -24.5 -17s-18.5 -6.5 -28.5 -6.5h-378c-10 0 -19.5 2.16699 -28.5 6.5s-17 10 -24 17s-12.667 15 -17 24s-6.5 18.5 -6.5 28.5v695c0 10 2.16699 19.5 6.5 28.5s10 17 17 24
s15 12.667 24 17s18.5 6.5 28.5 6.5h378c10 0 19.5 -2.16699 28.5 -6.5s17.167 -10 24.5 -17s13.166 -15 17.499 -24s6.5 -18.5 6.5 -28.5v-695zM325 694h-81v-541h81v541zM423 936c0 -17.333 -6.16699 -32 -18.5 -44s-27.166 -18 -44.499 -18
c-16.667 0 -31 6.16699 -43 18.5s-18 26.833 -18 43.5s6 31 18 43s26.333 18 43 18c17.333 0 32.166 -5.83301 44.499 -17.5s18.5 -26.167 18.5 -43.5zM273 936c0 -16.667 -6.16895 -31.167 -18.502 -43.5s-26.833 -18.5 -43.5 -18.5c-17.333 0 -32.166 6 -44.499 18
s-18.5 26.667 -18.5 44c0 16.667 6.33301 31 19 43s27.334 18 44.001 18s31.167 -6 43.5 -18s18.5 -26.333 18.5 -43z" />
    <glyph glyph-name="multiply" unicode="&#xd7;" horiz-adv-x="661" 
d="M331 259l-148 -147l-163 163l147 147l-147 148l163 163l147 -147l148 147l163 -163l-147 -148l147 -147l-163 -163z" />
    <glyph glyph-name="Oslash" unicode="&#xd8;" horiz-adv-x="571" 
d="M551 76c0 -10 -2.16602 -19.502 -6.49902 -28.502s-10 -17 -17 -24s-15 -12.667 -24 -17s-18.5 -6.5 -28.5 -6.5h-449l12 29c-12 14.667 -18 30.334 -18 47.001v695c0 10 2.16699 19.5 6.5 28.5s10.166 17 17.499 24s15.5 12.667 24.5 17s18.5 6.5 28.5 6.5h449l-14 -30
c12.667 -15.333 19 -30.666 19 -45.999v-695zM245.001 693.998v-168l70 168h-70zM326.001 319.998l-71 -167h71v167z" />
    <glyph glyph-name="Ugrave" unicode="&#xd9;" horiz-adv-x="571" 
d="M551 76c0 -10 -2.16797 -19.5 -6.50098 -28.5s-10.166 -17 -17.499 -24s-15.5 -12.667 -24.5 -17s-18.5 -6.5 -28.5 -6.5h-378c-10 0 -19.5 2.16699 -28.5 6.5s-17 10 -24 17s-12.667 15 -17 24s-6.5 18.5 -6.5 28.5v771h224v-694h81v694h226v-771v0zM421.999 874
l-316 139l40 93l318 -137z" />
    <glyph glyph-name="Uacute" unicode="&#xda;" horiz-adv-x="571" 
d="M551 76c0 -10 -2.16797 -19.5 -6.50098 -28.5s-10.166 -17 -17.499 -24s-15.5 -12.667 -24.5 -17s-18.5 -6.5 -28.5 -6.5h-378c-10 0 -19.5 2.16699 -28.5 6.5s-17 10 -24 17s-12.667 15 -17 24s-6.5 18.5 -6.5 28.5v771h224v-694h81v694h226v-771v0zM147.999 874l-42 95
l318 137l40 -93z" />
    <glyph glyph-name="Ucircumflex" unicode="&#xdb;" horiz-adv-x="571" 
d="M551 76c0 -10 -2.16797 -19.5 -6.50098 -28.5s-10.166 -17 -17.499 -24s-15.5 -12.667 -24.5 -17s-18.5 -6.5 -28.5 -6.5h-378c-10 0 -19.5 2.16699 -28.5 6.5s-17 10 -24 17s-12.667 15 -17 24s-6.5 18.5 -6.5 28.5v771h224v-694h81v694h226v-771v0zM416.999 874
l-132 110l-130 -110l-66 79l196 165l197 -165z" />
    <glyph glyph-name="Udieresis" unicode="&#xdc;" horiz-adv-x="571" 
d="M551 76c0 -10 -2.16797 -19.5 -6.50098 -28.5s-10.166 -17 -17.499 -24s-15.5 -12.667 -24.5 -17s-18.5 -6.5 -28.5 -6.5h-378c-10 0 -19.5 2.16699 -28.5 6.5s-17 10 -24 17s-12.667 15 -17 24s-6.5 18.5 -6.5 28.5v771h224v-694h81v694h226v-771v0zM422.999 936
c0 -17.333 -6.16699 -32 -18.5 -44s-27.166 -18 -44.499 -18c-16.667 0 -31 6.16699 -43 18.5s-18 26.833 -18 43.5s6 31 18 43s26.333 18 43 18c17.333 0 32.166 -5.83301 44.499 -17.5s18.5 -26.167 18.5 -43.5zM272.999 936c0 -16.667 -6.16895 -31.167 -18.502 -43.5
s-26.833 -18.5 -43.5 -18.5c-17.333 0 -32.166 6 -44.499 18s-18.5 26.667 -18.5 44c0 16.667 6.33301 31 19 43s27.334 18 44.001 18s31.167 -6 43.5 -18s18.5 -26.333 18.5 -43z" />
    <glyph glyph-name="Yacute" unicode="&#xdd;" horiz-adv-x="701" 
d="M451 0h-231l75 275h-86c-8 0 -16 1.66699 -24 5s-15.5 7.83301 -22.5 13.5s-13 12.167 -18 19.5s-8.5 15 -10.5 23l-114 511h228l91 -407l112 407h230zM213 874l-42 95l318 137l40 -93z" />
    <glyph glyph-name="Thorn" unicode="&#xde;" horiz-adv-x="556" 
d="M536 241c0 -10 -2.16699 -19.5 -6.5 -28.5s-10.166 -17 -17.499 -24s-15.5 -12.667 -24.5 -17s-18.5 -6.5 -28.5 -6.5h-213v-165h-226v847h226v-164h213c10 0 19.5 -2.16699 28.5 -6.5s17.167 -10 24.5 -17s13.166 -15 17.499 -24s6.5 -18.5 6.5 -28.5v-366zM331 529h-85
v-211h85v211z" />
    <glyph glyph-name="germandbls" unicode="&#xdf;" horiz-adv-x="629" 
d="M609 65c0 -17.333 -6.50195 -32.499 -19.502 -45.499s-27.833 -19.5 -44.5 -19.5h-226v130h99v54h-48c-17.333 0 -32.666 6.66699 -45.999 20c-14 14 -21 29 -21 45v131c0 14 6 27.667 18 41l61 64v105h-97v-590h-192v314h-73v131h73v210
c0 16.667 6.83301 31.667 20.5 45s28.834 20 45.501 20h349c16.667 0 31.667 -6.66699 45 -20s20 -28.333 20 -45v-139c0 -10.667 -6 -22.334 -18 -35.001l-121 -130v-37h111c16.667 0 31.5 -6.66699 44.5 -20s19.5 -28.333 19.5 -45v-184v0z" />
    <glyph glyph-name="agrave" unicode="&#xe0;" horiz-adv-x="577" 
d="M362 0l-11 50l-2 2h-122c0 -0.666992 -4 -18 -12 -52h-195l139 590h-65l30 130h263l170 -720h-195zM288 312l-31 -130h62zM425 747l-316 139l40 93l318 -137z" />
    <glyph glyph-name="aacute" unicode="&#xe1;" horiz-adv-x="577" 
d="M362 0l-11 50l-2 2h-122c0 -0.666992 -4 -18 -12 -52h-195l139 590h-65l30 130h263l170 -720h-195zM288 312l-31 -130h62zM151 747l-42 95l318 137l40 -93z" />
    <glyph glyph-name="acircumflex" unicode="&#xe2;" horiz-adv-x="577" 
d="M362 0l-11 50l-2 2h-122c0 -0.666992 -4 -18 -12 -52h-195l139 590h-65l30 130h263l170 -720h-195zM288 312l-31 -130h62zM420 747l-132 110l-130 -110l-66 79l196 165l197 -165z" />
    <glyph glyph-name="atilde" unicode="&#xe3;" horiz-adv-x="577" 
d="M362 0l-11 50l-2 2h-122c0 -0.666992 -4 -18 -12 -52h-195l139 590h-65l30 130h263l170 -720h-195zM288 312l-31 -130h62zM453 787c-3.33301 -9.33301 -10.001 -17.333 -20.001 -24s-20 -10 -30 -10c-3.33301 0 -7.66602 0.666992 -12.999 2l-185 58l-25 -71l-97 33
l41 118c6.66699 22 25 33 55 33c2.66699 0 67 -19.667 193 -59l24 71l97 -33z" />
    <glyph glyph-name="adieresis" unicode="&#xe4;" horiz-adv-x="577" 
d="M362 0l-11 50l-2 2h-122c0 -0.666992 -4 -18 -12 -52h-195l139 590h-65l30 130h263l170 -720h-195zM288 312l-31 -130h62zM426 809c0 -17.333 -6.16699 -32 -18.5 -44s-27.166 -18 -44.499 -18c-16.667 0 -31 6.16699 -43 18.5s-18 26.833 -18 43.5s6 31 18 43
s26.333 18 43 18c17.333 0 32.166 -5.83301 44.499 -17.5s18.5 -26.167 18.5 -43.5zM276 809c0 -16.667 -6.16895 -31.167 -18.502 -43.5s-26.833 -18.5 -43.5 -18.5c-17.333 0 -32.166 6 -44.499 18s-18.5 26.667 -18.5 44c0 16.667 6.33301 31 19 43s27.334 18 44.001 18
s31.167 -6 43.5 -18s18.5 -26.333 18.5 -43z" />
    <glyph glyph-name="aring" unicode="&#xe5;" horiz-adv-x="577" 
d="M362 0l-11 50l-2 2h-122c0 -0.666992 -4 -18 -12 -52h-195l139 590h-65l30 130h263l170 -720h-195zM288 312l-31 -130h62zM429 889c0 -19.333 -3.66699 -37.5 -11 -54.5s-17.5 -32 -30.5 -45s-28 -23.333 -45 -31s-35.167 -11.5 -54.5 -11.5s-37.5 3.83301 -54.5 11.5
s-31.833 18 -44.5 31s-22.667 28 -30 45s-11 35.167 -11 54.5c0 18.667 3.66699 36.5 11 53.5s17.333 31.833 30 44.5s27.5 22.667 44.5 30s35.167 11 54.5 11s37.5 -3.66699 54.5 -11s32 -17.333 45 -30s23.167 -27.5 30.5 -44.5s11 -34.833 11 -53.5zM327 889
c0 10 -4.00098 18.833 -12.001 26.5s-17 11.5 -27 11.5s-18.833 -3.83301 -26.5 -11.5s-11.5 -16.5 -11.5 -26.5c0 -10.667 3.66699 -20 11 -28s16.333 -12 27 -12s19.834 4 27.501 12s11.5 17.333 11.5 28z" />
    <glyph glyph-name="ae" unicode="&#xe6;" horiz-adv-x="656" 
d="M522 315v-185h108l-31 -130h-203c-16.667 0 -31.667 6.5 -45 19.5s-20 28.167 -20 45.5v250h-68v-315h-190v315h-53v130h53v210c0 16.667 6.5 31.667 19.5 45s28.167 20 45.5 20h461l31 -130h-108v-145h114v-130h-114zM331 590h-68v-145h68v145z" />
    <glyph glyph-name="ccedilla" unicode="&#xe7;" horiz-adv-x="383" 
d="M85 0c-16.667 0 -31.667 6.5 -45 19.5s-20 28.167 -20 45.5v590c0 16.667 6.66699 31.667 20 45s28.333 20 45 20h278v-130h-151v-460h151v-130h-278zM347 -214c0 -13.333 -5.16699 -25.332 -15.5 -35.999s-21.833 -16 -34.5 -16h-202v103h151v27h-107v205h102v-102h56
c12.667 0 24.167 -5.33301 34.5 -16s15.5 -22.334 15.5 -35.001v-130v0z" />
    <glyph glyph-name="egrave" unicode="&#xe8;" horiz-adv-x="351" 
d="M299 0h-279v720h279l32 -130h-119v-145h114v-130h-114v-185h119zM314 747l-316 139l40 93l318 -137z" />
    <glyph glyph-name="eacute" unicode="&#xe9;" horiz-adv-x="351" 
d="M299 0h-279v720h279l32 -130h-119v-145h114v-130h-114v-185h119zM40 747l-42 95l318 137l40 -93z" />
    <glyph glyph-name="ecircumflex" unicode="&#xea;" horiz-adv-x="351" 
d="M299 0h-279v720h279l32 -130h-119v-145h114v-130h-114v-185h119zM308 747l-132 110l-130 -110l-66 79l196 165l197 -165z" />
    <glyph glyph-name="edieresis" unicode="&#xeb;" horiz-adv-x="351" 
d="M299 0h-279v720h279l32 -130h-119v-145h114v-130h-114v-185h119zM313 809c0 -17.333 -6.16699 -32 -18.5 -44s-27.166 -18 -44.499 -18c-16.667 0 -31 6.16699 -43 18.5s-18 26.833 -18 43.5s6 31 18 43s26.333 18 43 18c17.333 0 32.166 -5.83301 44.499 -17.5
s18.5 -26.167 18.5 -43.5zM163 809c0 -16.667 -6.16895 -31.167 -18.502 -43.5s-26.833 -18.5 -43.5 -18.5c-17.333 0 -32.166 6 -44.499 18s-18.5 26.667 -18.5 44c0 16.667 6.33301 31 19 43s27.334 18 44.001 18s31.167 -6 43.5 -18s18.5 -26.333 18.5 -43z" />
    <glyph glyph-name="igrave" unicode="&#xec;" horiz-adv-x="232" 
d="M20 0v720h192v-720h-192zM254 747l-316 139l40 93l318 -137z" />
    <glyph glyph-name="iacute" unicode="&#xed;" horiz-adv-x="232" 
d="M20 0v720h192v-720h-192zM-20 747l-42 95l318 137l40 -93z" />
    <glyph glyph-name="icircumflex" unicode="&#xee;" horiz-adv-x="232" 
d="M20 0v720h192v-720h-192zM249 747l-132 110l-130 -110l-66 79l196 165l197 -165z" />
    <glyph glyph-name="idieresis" unicode="&#xef;" horiz-adv-x="232" 
d="M20 0v720h192v-720h-192zM255 809c0 -17.333 -6.16699 -32 -18.5 -44s-27.166 -18 -44.499 -18c-16.667 0 -31 6.16699 -43 18.5s-18 26.833 -18 43.5s6 31 18 43s26.333 18 43 18c17.333 0 32.166 -5.83301 44.499 -17.5s18.5 -26.167 18.5 -43.5zM105 809
c0 -16.667 -6.16895 -31.167 -18.502 -43.5s-26.833 -18.5 -43.5 -18.5c-17.333 0 -32.166 6 -44.499 18s-18.5 26.667 -18.5 44c0 16.667 6.33301 31 19 43s27.334 18 44.001 18s31.167 -6 43.5 -18s18.5 -26.333 18.5 -43z" />
    <glyph glyph-name="eth" unicode="&#xf0;" horiz-adv-x="533" 
d="M513 65c0 -17.333 -6.5 -32.5 -19.5 -45.5s-27.833 -19.5 -44.5 -19.5h-387v315h-42v130h42v275h387c16.667 0 31.5 -6.66699 44.5 -20s19.5 -28.333 19.5 -45v-590zM322 590h-68v-145h33v-130h-33v-185h68v460z" />
    <glyph glyph-name="ntilde" unicode="&#xf1;" 
d="M280 0l-0.000976562 585.001h-68v-585h-192v720h192v-48c4.66699 13.333 12.834 24.666 24.501 33.999s24.167 14 37.5 14h133c16.667 0 31.667 -6.66699 45 -20s20 -28.333 20 -45v-655h-192zM410.999 787.001c-3.33301 -9.33301 -10.001 -17.333 -20.001 -24
s-20 -10 -30 -10c-3.33301 0 -7.66602 0.666992 -12.999 2l-185 58l-25 -71l-97 33l41 118c6.66699 22 25 33 55 33c2.66699 0 67 -19.667 193 -59l24 71l97 -33z" />
    <glyph glyph-name="ograve" unicode="&#xf2;" 
d="M472 65c0 -17.333 -6.83301 -32.5 -20.5 -45.5s-28.834 -19.5 -45.501 -19.5h-321c-16.667 0 -31.667 6.5 -45 19.5s-20 28.167 -20 45.5v590c0 16.667 6.66699 31.667 20 45s28.333 20 45 20h321c16.667 0 31.834 -6.66699 45.501 -20s20.5 -28.333 20.5 -45v-590z
M280 590h-69v-460h69v460zM383 747l-316 139l40 93l318 -137z" />
    <glyph glyph-name="oacute" unicode="&#xf3;" 
d="M472 65c0 -17.333 -6.83301 -32.5 -20.5 -45.5s-28.834 -19.5 -45.501 -19.5h-321c-16.667 0 -31.667 6.5 -45 19.5s-20 28.167 -20 45.5v590c0 16.667 6.66699 31.667 20 45s28.333 20 45 20h321c16.667 0 31.834 -6.66699 45.501 -20s20.5 -28.333 20.5 -45v-590z
M280 590h-69v-460h69v460zM109 747l-42 95l318 137l40 -93z" />
    <glyph glyph-name="ocircumflex" unicode="&#xf4;" 
d="M472 65c0 -17.333 -6.83301 -32.5 -20.5 -45.5s-28.834 -19.5 -45.501 -19.5h-321c-16.667 0 -31.667 6.5 -45 19.5s-20 28.167 -20 45.5v590c0 16.667 6.66699 31.667 20 45s28.333 20 45 20h321c16.667 0 31.834 -6.66699 45.501 -20s20.5 -28.333 20.5 -45v-590z
M280 590h-69v-460h69v460zM377 747l-132 110l-130 -110l-66 79l196 165l197 -165z" />
    <glyph glyph-name="otilde" unicode="&#xf5;" 
d="M472 65c0 -17.333 -6.83301 -32.5 -20.5 -45.5s-28.834 -19.5 -45.501 -19.5h-321c-16.667 0 -31.667 6.5 -45 19.5s-20 28.167 -20 45.5v590c0 16.667 6.66699 31.667 20 45s28.333 20 45 20h321c16.667 0 31.834 -6.66699 45.501 -20s20.5 -28.333 20.5 -45v-590z
M280 590h-69v-460h69v460zM411 787c-3.33301 -9.33301 -10.001 -17.333 -20.001 -24s-20 -10 -30 -10c-3.33301 0 -7.66602 0.666992 -12.999 2l-185 58l-25 -71l-97 33l41 118c6.66699 22 25 33 55 33c2.66699 0 67 -19.667 193 -59l24 71l97 -33z" />
    <glyph glyph-name="odieresis" unicode="&#xf6;" 
d="M472 65c0 -17.333 -6.83301 -32.5 -20.5 -45.5s-28.834 -19.5 -45.501 -19.5h-321c-16.667 0 -31.667 6.5 -45 19.5s-20 28.167 -20 45.5v590c0 16.667 6.66699 31.667 20 45s28.333 20 45 20h321c16.667 0 31.834 -6.66699 45.501 -20s20.5 -28.333 20.5 -45v-590z
M280 590h-69v-460h69v460zM383 809c0 -17.333 -6.16699 -32 -18.5 -44s-27.166 -18 -44.499 -18c-16.667 0 -31 6.16699 -43 18.5s-18 26.833 -18 43.5s6 31 18 43s26.333 18 43 18c17.333 0 32.166 -5.83301 44.499 -17.5s18.5 -26.167 18.5 -43.5zM233 809
c0 -16.667 -6.16895 -31.167 -18.502 -43.5s-26.833 -18.5 -43.5 -18.5c-17.333 0 -32.166 6 -44.499 18s-18.5 26.667 -18.5 44c0 16.667 6.33301 31 19 43s27.334 18 44.001 18s31.167 -6 43.5 -18s18.5 -26.333 18.5 -43z" />
    <glyph glyph-name="divide" unicode="&#xf7;" horiz-adv-x="687" 
d="M20 307v231h647v-231h-647z" />
    <glyph glyph-name="oslash" unicode="&#xf8;" 
d="M472 65c0 -17.333 -6.66797 -32.499 -20.001 -45.499s-28.333 -19.5 -45 -19.5h-382l11 25c-10.667 11.333 -16 24.666 -16 39.999v590c0 16.667 6.83301 31.667 20.5 45s28.834 20 45.501 20h381l-12 -26c11.333 -12 17 -25 17 -39v-590zM211.999 590.001v-143l59 143
h-59zM279.999 272.001l-60 -142h60v142z" />
    <glyph glyph-name="ugrave" unicode="&#xf9;" 
d="M472 65c0 -17.333 -6.83203 -32.5 -20.499 -45.5s-28.834 -19.5 -45.501 -19.5h-321c-16.667 0 -31.667 6.5 -45 19.5s-20 28.167 -20 45.5v655h191v-590h69v590h192v-655v0zM383.001 747l-316 139l40 93l318 -137z" />
    <glyph glyph-name="uacute" unicode="&#xfa;" 
d="M472 65c0 -17.333 -6.83203 -32.5 -20.499 -45.5s-28.834 -19.5 -45.501 -19.5h-321c-16.667 0 -31.667 6.5 -45 19.5s-20 28.167 -20 45.5v655h191v-590h69v590h192v-655v0zM109.001 747l-42 95l318 137l40 -93z" />
    <glyph glyph-name="ucircumflex" unicode="&#xfb;" 
d="M472 65c0 -17.333 -6.83203 -32.5 -20.499 -45.5s-28.834 -19.5 -45.501 -19.5h-321c-16.667 0 -31.667 6.5 -45 19.5s-20 28.167 -20 45.5v655h191v-590h69v590h192v-655v0zM377.001 747l-132 110l-130 -110l-66 79l196 165l197 -165z" />
    <glyph glyph-name="udieresis" unicode="&#xfc;" 
d="M472 65c0 -17.333 -6.83203 -32.5 -20.499 -45.5s-28.834 -19.5 -45.501 -19.5h-321c-16.667 0 -31.667 6.5 -45 19.5s-20 28.167 -20 45.5v655h191v-590h69v590h192v-655v0zM383.001 809c0 -17.333 -6.16699 -32 -18.5 -44s-27.166 -18 -44.499 -18
c-16.667 0 -31 6.16699 -43 18.5s-18 26.833 -18 43.5s6 31 18 43s26.333 18 43 18c17.333 0 32.166 -5.83301 44.499 -17.5s18.5 -26.167 18.5 -43.5zM233.001 809c0 -16.667 -6.16895 -31.167 -18.502 -43.5s-26.833 -18.5 -43.5 -18.5c-17.333 0 -32.166 6 -44.499 18
s-18.5 26.667 -18.5 44c0 16.667 6.33301 31 19 43s27.334 18 44.001 18s31.167 -6 43.5 -18s18.5 -26.333 18.5 -43z" />
    <glyph glyph-name="yacute" unicode="&#xfd;" horiz-adv-x="602" 
d="M387 0h-197l64 234h-73c-13.333 0 -26.5 5.33301 -39.5 16s-21.167 22.667 -24.5 36l-97 434h194l77 -346l96 346h195zM164 747l-42 95l318 137l40 -93z" />
    <glyph glyph-name="thorn" unicode="&#xfe;" horiz-adv-x="479" 
d="M459 205c0 -16.667 -6.66699 -31.667 -20 -45s-28.666 -20 -45.999 -20h-181v-140h-192v720h192v-139h181c17.333 0 32.666 -6.66699 45.999 -20s20 -28.333 20 -45v-311zM285 450h-73v-180h73v180z" />
    <glyph glyph-name="ydieresis" unicode="&#xff;" horiz-adv-x="602" 
d="M387 0h-197l64 234h-73c-13.333 0 -26.5 5.33301 -39.5 16s-21.167 22.667 -24.5 36l-97 434h194l77 -346l96 346h195zM438 809c0 -17.333 -6.16699 -32 -18.5 -44s-27.166 -18 -44.499 -18c-16.667 0 -31 6.16699 -43 18.5s-18 26.833 -18 43.5s6 31 18 43
s26.333 18 43 18c17.333 0 32.166 -5.83301 44.499 -17.5s18.5 -26.167 18.5 -43.5zM288 809c0 -16.667 -6.16895 -31.167 -18.502 -43.5s-26.833 -18.5 -43.5 -18.5c-17.333 0 -32.166 6 -44.499 18s-18.5 26.667 -18.5 44c0 16.667 6.33301 31 19 43s27.334 18 44.001 18
s31.167 -6 43.5 -18s18.5 -26.333 18.5 -43z" />
    <glyph glyph-name="dotlessi" unicode="&#x131;" horiz-adv-x="232" 
d="M20 0v720h192v-720h-192z" />
    <glyph glyph-name="OE" unicode="&#x152;" horiz-adv-x="710" 
d="M655 0l-557 0.000976562c-18.667 0 -36.667 7.66699 -54 23c-16 16 -24 33.667 -24 53v695c0 19.333 8 36.666 24 51.999c16.667 16 34.667 24 54 24h557l35 -153h-138v-170h134v-153h-134v-218h138zM327 694.001h-81v-541h81v541z" />
    <glyph glyph-name="oe" unicode="&#x153;" horiz-adv-x="610" 
d="M560 0h-473c-16 0 -31.333 6.66699 -46 20c-14 12.667 -21 27.667 -21 45v590c0 16.667 7 31.667 21 45c14.667 13.333 30 20 46 20h473l30 -130h-118v-145h114v-130h-114v-185h118zM281 590h-69v-460h69v460z" />
    <glyph glyph-name="Scaron" unicode="&#x160;" horiz-adv-x="505" 
d="M263 694v-169.999h118c10 0 19.5 -2.16699 28.5 -6.5s17.167 -10 24.5 -17s13.166 -15 17.499 -24s6.5 -18.5 6.5 -28.5v-372c0 -10 -2.16699 -19.5 -6.5 -28.5s-10.166 -17 -17.499 -24s-15.5 -12.667 -24.5 -17s-18.5 -6.5 -28.5 -6.5h-325l-36 153h213v218h-118
c-10 0 -19.5 2.16699 -28.5 6.5s-17 10.166 -24 17.499s-12.667 15.5 -17 24.5s-6.5 18.5 -6.5 28.5v323c0 10 2.16699 19.5 6.5 28.5s10 17 17 24s15 12.667 24 17s18.5 6.5 28.5 6.5h335l35 -153h-222zM253 874.001l-197 165l65 79l132 -110l130 110l66 -79z" />
    <glyph glyph-name="scaron" unicode="&#x161;" horiz-adv-x="436" 
d="M227 590v-145.001h100c16.667 0 31.834 -6.5 45.501 -19.5s20.5 -27.833 20.5 -44.5v-316c0 -17.333 -6.83301 -32.5 -20.5 -45.5s-28.834 -19.5 -45.501 -19.5h-276l-31 130h181v185h-100c-16.667 0 -31.667 6.83301 -45 20.5s-20 28.834 -20 45.501v274
c0 16.667 6.66699 31.667 20 45s28.333 20 45 20h285l30 -130h-189zM218 746.999l-197 165l65 79l132 -110l130 110l66 -79z" />
    <glyph glyph-name="Ydieresis" unicode="&#x178;" horiz-adv-x="701" 
d="M451 0h-231l75 275h-86c-8 0 -16 1.66699 -24 5s-15.5 7.83301 -22.5 13.5s-13 12.167 -18 19.5s-8.5 15 -10.5 23l-114 511h228l91 -407l112 407h230zM488 936c0 -17.333 -6.16699 -32 -18.5 -44s-27.166 -18 -44.499 -18c-16.667 0 -31 6.16699 -43 18.5
s-18 26.833 -18 43.5s6 31 18 43s26.333 18 43 18c17.333 0 32.166 -5.83301 44.499 -17.5s18.5 -26.167 18.5 -43.5zM338 936c0 -16.667 -6.16895 -31.167 -18.502 -43.5s-26.833 -18.5 -43.5 -18.5c-17.333 0 -32.166 6 -44.499 18s-18.5 26.667 -18.5 44
c0 16.667 6.33301 31 19 43s27.334 18 44.001 18s31.167 -6 43.5 -18s18.5 -26.333 18.5 -43z" />
    <glyph glyph-name="Zcaron" unicode="&#x17d;" horiz-adv-x="501" 
d="M292 153h188v-153h-460l189 694h-167v153h439zM251 874l-197 165l65 79l132 -110l130 110l66 -79z" />
    <glyph glyph-name="zcaron" unicode="&#x17e;" horiz-adv-x="432" 
d="M251 130h160v-130h-391l161 590h-142v130h373zM217 747l-197 165l65 79l132 -110l130 110l66 -79z" />
    <glyph glyph-name="florin" unicode="&#x192;" horiz-adv-x="865" 
d="M492 489c0 -6.66699 -0.334961 -11.666 -1.00195 -14.999c2.66699 0 5.33398 0.166992 8.00098 0.5s5.66699 0.5 9 0.5c15.333 0 30.333 -3.33301 45 -10s23 -17.667 25 -33c7.33301 3.33301 16 5.83301 26 7.5s19.667 2.5 29 2.5c22.667 0 42.834 -5.5 60.501 -16.5
s26.5 -28.167 26.5 -51.5c0 -10.667 -3.33301 -21 -10 -31c-2 -4 -5 -6 -9 -6c-7.33301 0 -11 3.66699 -11 11c0 2 1 4 3 6c4 6 6 12.667 6 20c0 13.333 -5.5 24.333 -16.5 33s-24.167 13 -39.5 13c-16.667 0 -31.667 -2.33301 -45 -7s-24.666 -10.334 -33.999 -17.001
s-16.5 -13.834 -21.5 -21.501s-7.5 -14.834 -7.5 -21.501c0 -7.33301 2.5 -14.5 7.5 -21.5s16.833 -10.5 35.5 -10.5c12.667 0 23.334 1.66699 32.001 5c0.666992 0.666992 2 1 4 1c7.33301 0 11 -4 11 -12c-3.33301 -24 -15.333 -44 -36 -60
c-9.33301 -7.33301 -20 -13 -32 -17s-25 -6 -39 -6c-16 0 -31.667 3 -47 9s-28.333 15.333 -39 28c-10.667 -12.667 -23.5 -22 -38.5 -28s-30.5 -9 -46.5 -9c-14 0 -27 2 -39 6s-23 9.66699 -33 17c-9.33301 7.33301 -17.166 16.166 -23.499 26.499
s-10.166 21.5 -11.499 33.5c0 8 3.33301 12 10 12c2 0 3 -0.333008 3 -1c9.33301 -3.33301 20.333 -5 33 -5c20 0 32.667 3.5 38 10.5s8 14.167 8 21.5c0 6 -2.66699 13 -8 21s-12.833 15.333 -22.5 22s-21.334 12.334 -35.001 17.001s-29.167 7 -46.5 7
c-15.333 0 -28.333 -4.33301 -39 -13s-16 -19.667 -16 -33c0 -6.66699 2.33301 -13.334 7 -20.001c1.33301 -1.33301 2 -3.33301 2 -6c0 -7.33301 -3.33301 -11 -10 -11c-4 0 -7.33301 2 -10 6c-6.66699 10 -10 20.333 -10 31c0 23.333 8.83301 40.5 26.5 51.5
s38.167 16.5 61.5 16.5c8.66699 0 18 -0.833008 28 -2.5s18.667 -4.16699 26 -7.5c0.666992 8 3.5 14.667 8.5 20s10.833 9.66602 17.5 12.999s13.834 5.83301 21.501 7.5s14.834 2.5 21.501 2.5c3.33301 0 6.5 -0.166992 9.5 -0.5s6.16699 -0.5 9.5 -0.5
c-0.666992 3.33301 -1 9.33301 -1 18c0 9.33301 0.333008 17.833 1 25.5s2 14.5 4 20.5c3.33301 12.667 7.33301 19 12 19c5.33301 0 9.66602 -6.33301 12.999 -19c1.33301 -3.33301 2.16602 -7.16602 2.49902 -11.499s0.833008 -9.16602 1.5 -14.499l-19 -23h20
c0 -10.667 -1 -20.334 -3 -29.001c12.667 -8.66699 19 -19.667 19 -33c0 -11.333 -3.16699 -20.166 -9.5 -26.499s-13.5 -11.166 -21.5 -14.499s-15.333 -7.33301 -22 -12s-10 -9.66699 -10 -15c0 -6.66699 2.5 -12.167 7.5 -16.5s11 -7.83301 18 -10.5
s14.667 -4.66699 23 -6s15.833 -2 22.5 -2s14.167 0.666992 22.5 2s16.166 3.33301 23.499 6s13.333 6.16699 18 10.5s7 9.83301 7 16.5c0 5.33301 -3 10.333 -9 15s-13.333 8.66699 -22 12c-8 3.33301 -15.167 7.83301 -21.5 13.5s-9.5 14.834 -9.5 27.501c0 14 6 25 18 33
c-0.666992 4.66699 -1.16699 9.66699 -1.5 15s-0.5 11 -0.5 17c0 9.33301 0.333008 17.833 1 25.5s2 14.5 4 20.5c3.33301 12.667 7.33301 19 12 19c5.33301 0 9.66602 -6.33301 12.999 -19c1.33301 -3.33301 2.16602 -7.33301 2.49902 -12s0.833008 -9.66699 1.5 -15
l-19 -22h20zM509.998 462.001c-17.333 0 -31.001 -4 -41.001 -12c-10 -6.66699 -15 -14.334 -15 -23.001s5 -16.334 15 -23.001c10.667 -7.33301 24.334 -11 41.001 -11c16 0 29.333 3.66699 40 11c10 6.66699 15 14.334 15 23.001s-5 16.334 -15 23.001
c-10 8 -23.333 12 -40 12zM354.997 462.001c-16.667 0 -30 -4 -40 -12c-10 -6 -15 -13.667 -15 -23s5 -17 15 -23c10.667 -7.33301 24 -11 40 -11s29.333 3.66699 40 11c10 6 15 13.667 15 23s-5 17 -15 23c-10 8 -23.333 12 -40 12zM504.997 325.001
c-10 -8.66699 -21.832 -14.5 -35.499 -17.5s-26.167 -4.5 -37.5 -4.5s-23.833 1.5 -37.5 4.5s-25.167 8.83301 -34.5 17.5c-10.667 -8.66699 -22.334 -15 -35.001 -19s-25.667 -6 -39 -6c-3.33301 0 -6.83301 0.166992 -10.5 0.5s-7.5 0.5 -11.5 0.5
c7.33301 -16 18.666 -28 33.999 -36s31.666 -12 48.999 -12c14.667 0 29 3.16699 43 9.5s25 16.166 33 29.499c3.33301 3.33301 6.33301 5 9 5c4.66699 0 8 -1.66699 10 -5c7.33301 -13.333 18.166 -23.166 32.499 -29.499s28.833 -9.5 43.5 -9.5
c16.667 0 32.834 4 48.501 12s26.5 20 32.5 36c-3.33301 0 -6.66602 -0.166992 -9.99902 -0.5s-7 -0.5 -11 -0.5c-13.333 0 -26.166 2 -38.499 6s-23.833 10.333 -34.5 19zM351.998 619.001c-18 -4 -35.0068 -9.16895 -51.0068 -15.502s-29.667 -14 -41 -23
s-20.333 -19.833 -27 -32.5s-10 -27 -10 -43c0 -5.33301 0.5 -10.5 1.5 -15.5s1.5 -10.5 1.5 -16.5c0 -7.33301 -3.66699 -11 -11 -11c-2 0 -4 0.666992 -6 2s-3 3.66602 -3 6.99902c-2.66699 10.667 -4 22 -4 34c0 24 4.5 46.833 13.5 68.5s21.833 41.167 38.5 58.5
c-13.333 7.33301 -24.833 17.333 -34.5 30s-16.167 27.334 -19.5 44.001c0 6.66699 3.33301 10 10 10c2 0 4 -0.666992 6 -2s3.33301 -3.66602 4 -6.99902c5.33301 -22 18 -39.167 38 -51.5s41 -18.5 63 -18.5c20.667 0 40.334 5.33301 59.001 16
s31.334 26.334 38.001 47.001c2 4.66699 5.33301 7 10 7c6 0 9.33301 -2.33301 10 -7c7.33301 -20.667 20.333 -36.334 39 -47.001s38.334 -16 59.001 -16c10.667 0 21.5 1.5 32.5 4.5s21 7.5 30 13.5s16.833 13.333 23.5 22s11.334 18.667 14.001 30
c0.666992 6 4.33398 9 11.001 9s10 -4.33301 10 -13c-3.33301 -14.667 -9.5 -27.667 -18.5 -39s-19.5 -20.666 -31.5 -27.999c17.333 -18 30.833 -38.167 40.5 -60.5s14.5 -45.833 14.5 -70.5c0 -10.667 -1 -22 -3 -34c-2 -6 -5.33301 -9 -10 -9
c-7.33301 0 -11 4.33301 -11 13c2 10 3 20 3 30c0 34.667 -10.5 60.5 -31.5 77.5s-47.5 28.167 -79.5 33.5c-20 3.33301 -39.167 9.16602 -57.5 17.499s-33.166 21.5 -44.499 39.5c-8.66699 -14 -19.667 -25.667 -33 -35s-27.666 -15.666 -42.999 -18.999zM751.991 153.999
c-17.333 -18 -37.9961 -32.167 -61.9961 -42.5s-49 -15.5 -75 -15.5c-13.333 -8 -27.666 -13.833 -42.999 -17.5s-31 -5.5 -47 -5.5h-12c-25.333 -12.667 -52.333 -19 -81 -19c-28 0 -54.667 6.33301 -80 19h-12c-16 0 -31.667 1.83301 -47 5.5s-30 9.5 -44 17.5
c-25.333 0 -50 5.16699 -74 15.5s-44.667 24.5 -62 42.5c-24.667 18 -46.334 39.833 -65.001 65.5s-28 54.5 -28 86.5c0 24 5.33301 46.333 16 67s24.667 39.334 42 56.001c-8.66699 16 -15.334 32.667 -20.001 50s-7 35 -7 53c0 39.333 10.167 76.166 30.5 110.499
s47.833 64.166 82.5 89.499s75 45.333 121 60s95 22 147 22s101 -7.33301 147 -22s86.333 -34.667 121 -60c35.333 -25.333 63.166 -55.166 83.499 -89.499s30.5 -71.166 30.5 -110.499c0 -18 -2.33301 -35.667 -7 -53s-11.334 -34 -20.001 -50
c16.667 -16.667 30.5 -35.334 41.5 -56.001s16.5 -43 16.5 -67c0 -32 -9.33301 -60.833 -28 -86.5s-40.334 -47.5 -65.001 -65.5zM649.995 120.999c16 3.33301 31.333 8.99902 46 16.999s27.5 18 38.5 30s19.833 25.667 26.5 41s10 32 10 50c0 14 -2.16699 27.667 -6.5 41
s-11.166 25.666 -20.499 36.999c-2 2.66699 -3 5 -3 7c0 7.33301 3.66699 11 11 11c2.66699 0 5.66699 -1.66699 9 -5c10 -13.333 17.667 -27.833 23 -43.5s8 -31.5 8 -47.5c0 -8.66699 -0.666992 -16.834 -2 -24.501s-3 -15.167 -5 -22.5
c11.333 13.333 20.666 27.833 27.999 43.5s11 32.5 11 50.5c0 22.667 -5.5 43.5 -16.5 62.5s-24.5 35.833 -40.5 50.5c-2.66699 2.66699 -4 5.33398 -4 8.00098c0 0.666992 0.666992 2.33398 2 5.00098c18.667 32 28 65.333 28 100c0 36 -9.5 69.667 -28.5 101
s-44.5 58.666 -76.5 81.999c-33.333 24 -71.833 43.167 -115.5 57.5s-90.5 21.5 -140.5 21.5s-96.833 -7.16699 -140.5 -21.5s-81.834 -33.5 -114.501 -57.5c-32.667 -23.333 -58.334 -50.666 -77.001 -81.999s-28 -65 -28 -101c0 -34.667 9.33301 -68 28 -100
c0.666992 -0.666992 1 -2.33398 1 -5.00098c0 -3.33301 -1 -6 -3 -8c-16 -14.667 -29.5 -31.5 -40.5 -50.5s-16.5 -39.833 -16.5 -62.5c0 -18 3.66699 -34.833 11 -50.5s16.666 -30.167 27.999 -43.5c-4.66699 14 -7 29.667 -7 47c0 16 2.66699 31.833 8 47.5
s13 30.167 23 43.5c2 3.33301 5 5 9 5c6.66699 0 10 -3.66699 10 -11c0 -0.666992 -0.666992 -3 -2 -7c-9.33301 -11.333 -16.166 -23.666 -20.499 -36.999s-6.5 -27 -6.5 -41c0 -18 3.16699 -34.667 9.5 -50s15 -29 26 -41s23.833 -22 38.5 -30s30.334 -13.667 47.001 -17
c-15.333 14 -27.833 30.667 -37.5 50s-14.5 40.666 -14.5 63.999c0 36.667 11.667 68.667 35 96c2 3.33301 4.66699 5 8 5c6.66699 0 10 -3.33301 10 -10c0 -3.33301 -0.666992 -6 -2 -8c-20 -24 -30 -51.667 -30 -83c0 -18.667 3.66699 -36 11 -52s17 -30 29 -42
s26 -21.833 42 -29.5s32.667 -12.834 50 -15.501c-18.667 14 -33.5 31.333 -44.5 52s-16.5 43.667 -16.5 69c0 7.33301 3.33301 11 10 11c7.33301 0 11 -3.66699 11 -11c0 -21.333 4.5 -40.666 13.5 -57.999s20.667 -32.166 35 -44.499s30.833 -22 49.5 -29
s38 -10.5 58 -10.5s39.333 3.5 58 10.5s35.334 16.667 50.001 29s26.5 27.166 35.5 44.499s13.5 36.666 13.5 57.999c0 7.33301 3.33301 11 10 11c7.33301 0 11 -3.66699 11 -11c0 -25.333 -5.66699 -48.333 -17 -69s-26 -38 -44 -52c17.333 2.66699 34 7.83398 50 15.501
s30 17.5 42 29.5s21.667 26 29 42s11 33.333 11 52c0 31.333 -10 59 -30 83c-2 2.66699 -3 5.33398 -3 8.00098c0 6.66699 3.33301 10 10 10c2.66699 0 5.66699 -1.66699 9 -5c11.333 -13.333 20 -28.333 26 -45s9 -33.667 9 -51c0 -23.333 -4.83301 -44.666 -14.5 -63.999
s-22.167 -36 -37.5 -50z" />
    <glyph glyph-name="circumflex" unicode="&#x2c6;" horiz-adv-x="433" 
d="M348 747l-132 110l-130 -110l-66 79l196 165l197 -165z" />
    <glyph glyph-name="caron" unicode="&#x2c7;" horiz-adv-x="433" 
d="M217 747l-197 165l65 79l132 -110l130 110l66 -79z" />
    <glyph glyph-name="ring" unicode="&#x2da;" horiz-adv-x="321" 
d="M301 889c0 -19.333 -3.66699 -37.5 -11 -54.5s-17.5 -32 -30.5 -45s-28 -23.333 -45 -31s-35.167 -11.5 -54.5 -11.5s-37.5 3.83301 -54.5 11.5s-31.833 18 -44.5 31s-22.667 28 -30 45s-11 35.167 -11 54.5c0 18.667 3.66699 36.5 11 53.5s17.333 31.833 30 44.5
s27.5 22.667 44.5 30s35.167 11 54.5 11s37.5 -3.66699 54.5 -11s32 -17.333 45 -30s23.167 -27.5 30.5 -44.5s11 -34.833 11 -53.5zM199 889c0 10 -4.00098 18.833 -12.001 26.5s-17 11.5 -27 11.5s-18.833 -3.83301 -26.5 -11.5s-11.5 -16.5 -11.5 -26.5
c0 -10.667 3.66699 -20 11 -28s16.333 -12 27 -12s19.834 4 27.501 12s11.5 17.333 11.5 28z" />
    <glyph glyph-name="tilde" unicode="&#x2dc;" horiz-adv-x="450" 
d="M390 787c-3.33301 -9.33301 -10.001 -17.333 -20.001 -24s-20 -10 -30 -10c-3.33301 0 -7.66602 0.666992 -12.999 2l-185 58l-25 -71l-97 33l41 118c6.66699 22 25 33 55 33c2.66699 0 67 -19.667 193 -59l24 71l97 -33z" />
    <glyph glyph-name="endash" unicode="&#x2013;" horiz-adv-x="507" 
d="M20 307v231h467v-231h-467z" />
    <glyph glyph-name="emdash" unicode="&#x2014;" horiz-adv-x="1007" 
d="M20 307v231h967v-231h-967z" />
    <glyph glyph-name="quoteleft" unicode="&#x2018;" horiz-adv-x="273" 
d="M107 846h146v-303h-233z" />
    <glyph glyph-name="quoteright" unicode="&#x2019;" horiz-adv-x="273" 
d="M166 544h-146v303h233z" />
    <glyph glyph-name="quotesinglbase" unicode="&#x201a;" horiz-adv-x="273" 
d="M166 -74h-146v303h233z" />
    <glyph glyph-name="quotedblleft" unicode="&#x201c;" horiz-adv-x="483" 
d="M107 846h146v-223l64 223h146v-303h-443z" />
    <glyph glyph-name="quotedblright" unicode="&#x201d;" horiz-adv-x="483" 
d="M376 544h-146v223l-64 -223h-146v303h443z" />
    <glyph glyph-name="quotedblbase" unicode="&#x201e;" horiz-adv-x="483" 
d="M376 -74h-146v223l-64 -223h-146v303h443z" />
    <glyph glyph-name="dagger" unicode="&#x2020;" horiz-adv-x="710" 
d="M461 -27c-42 -8 -77.3389 -27.333 -106.006 -58c-28.667 30.667 -64 50 -106 58c12.667 40.667 24.334 82.667 35.001 126s19.667 87.166 27 131.499s13 88.333 17 132s6.33301 86.167 7 127.5c-39.333 -3.33301 -76.166 -13.166 -110.499 -29.499
s-65.166 -37.5 -92.499 -63.5c-11.333 25.333 -26.666 47.666 -45.999 66.999s-41.333 34.666 -66 45.999c24.667 11.333 46.667 26.666 66 45.999s34.666 41.666 45.999 66.999c27.333 -26 58 -47.167 92 -63.5s70.667 -26.166 110 -29.499
c-3.33301 44 -13.833 85.5 -31.5 124.5s-40.834 73.833 -69.501 104.5c27.333 12 51.333 28.333 72 49s37.334 44.667 50.001 72c12.667 -27.333 29.334 -51.333 50.001 -72s44.667 -37 72 -49c-29.333 -30.667 -52.666 -65.5 -69.999 -104.5s-27.666 -80.5 -30.999 -124.5
c39.333 3.33301 76 13.166 110 29.499s64.667 37.5 92 63.5c11.333 -25.333 26.5 -47.666 45.5 -66.999s41.167 -34.666 66.5 -45.999c-25.333 -11.333 -47.5 -26.666 -66.5 -45.999s-34.167 -41.666 -45.5 -66.999c-27.333 26 -58.166 47.167 -92.499 63.5
s-71.166 26.166 -110.499 29.499c0.666992 -41.333 3 -83.833 7 -127.5s9.66699 -87.667 17 -132s16.166 -88.166 26.499 -131.499s22.166 -85.333 35.499 -126z" />
    <glyph glyph-name="daggerdbl" unicode="&#x2021;" horiz-adv-x="679" 
d="M441 388c-12.667 -10.667 -23.667 -20.5 -33 -29.5s-17.166 -18.5 -23.499 -28.5s-11.666 -21 -15.999 -33s-7.83301 -26 -10.5 -42c38 3.33301 73.5 12.666 106.5 27.999s62.167 35 87.5 59c11.333 -23.333 26.166 -44 44.499 -62s39.166 -32.667 62.499 -44
c-23.333 -10.667 -44.333 -25.167 -63 -43.5s-33.334 -39.166 -44.001 -62.499c-25.333 24.667 -54.333 44.667 -87 60s-68 24.666 -106 27.999c3.33301 -42 13.333 -81.333 30 -118s39 -69.334 67 -98.001c-25.333 -11.333 -48.166 -26.333 -68.499 -45
s-36.5 -40.667 -48.5 -66c-11.333 25.333 -27.166 47.333 -47.499 66s-43.166 33.667 -68.499 45c28 28.667 50.333 61.334 67 98.001s26.667 76 30 118c-38 -3.33301 -73.333 -12.666 -106 -27.999s-61.667 -35.333 -87 -60c-11.333 23.333 -26.166 44.166 -44.499 62.499
s-39.166 32.833 -62.499 43.5c23.333 11.333 44.166 26 62.499 44s33.166 38.667 44.499 62c25.333 -24 54.5 -43.667 87.5 -59s68.167 -24.666 105.5 -27.999c-2.66699 16 -6.16699 30 -10.5 42s-9.66602 23 -15.999 33s-14 19.5 -23 28.5s-19.833 18.833 -32.5 29.5
c12.667 10.667 23.5 20.5 32.5 29.5s16.667 18.5 23 28.5s11.666 21 15.999 33s7.83301 26 10.5 42c-37.333 -3.33301 -72.5 -12.666 -105.5 -27.999s-62.167 -35 -87.5 -59c-11.333 23.333 -26.166 44 -44.499 62s-39.166 32.667 -62.499 44
c23.333 10.667 44.166 25.167 62.499 43.5s33.166 39.166 44.499 62.499c25.333 -24.667 54.333 -44.667 87 -60s68 -24.666 106 -27.999c-3.33301 42 -13.333 81.333 -30 118s-39 69.334 -67 98.001c25.333 11.333 48.166 26.333 68.499 45s36.166 40.667 47.499 66
c12 -25.333 28.167 -47.333 48.5 -66s43.166 -33.667 68.499 -45c-28 -28.667 -50.333 -61.334 -67 -98.001s-26.667 -76 -30 -118c38 3.33301 73.333 12.666 106 27.999s61.667 35.333 87 60c10.667 -23.333 25.334 -44.166 44.001 -62.499s39.667 -32.833 63 -43.5
c-23.333 -11.333 -44.166 -26 -62.499 -44s-33.166 -38.667 -44.499 -62c-25.333 24 -54.5 43.667 -87.5 59s-68.5 24.666 -106.5 27.999c2.66699 -16 6.16699 -30 10.5 -42s9.66602 -23 15.999 -33s14.166 -19.5 23.499 -28.5s20.333 -18.833 33 -29.5z" />
    <glyph glyph-name="bullet" unicode="&#x2022;" horiz-adv-x="412" 
d="M392 435c0 -51.333 -18.333 -95.333 -55 -132c-36 -36 -79.667 -54 -131 -54s-95.333 18 -132 54c-36 36.667 -54 80.667 -54 132s18 95 54 131c36.667 36.667 80.667 55 132 55s95 -18.333 131 -55c36.667 -36 55 -79.667 55 -131z" />
    <glyph glyph-name="ellipsis" unicode="&#x2026;" horiz-adv-x="746" 
d="M520 0v231h206v-231h-206zM270 0v231h206v-231h-206zM20 0v231h206v-231h-206z" />
    <glyph glyph-name="perthousand" unicode="&#x2030;" horiz-adv-x="908" 
d="M205 0h-132l372 846h133zM256 462c0 -9.33301 -4.16699 -18 -12.5 -26s-17.166 -12 -26.499 -12h-159c-9.33301 0 -18 4 -26 12s-12 16.667 -12 26v348c0 9.33301 4 18 12 26s16.667 12 26 12h159c9.33301 0 18.166 -4 26.499 -12s12.5 -16.667 12.5 -26v-348zM153 771
h-31v-270h31v270zM632 38c0 -9.33301 -4.16699 -18 -12.5 -26s-17.166 -12 -26.499 -12h-159c-9.33301 0 -18 4 -26 12s-12 16.667 -12 26v348c0 9.33301 4 18 12 26s16.667 12 26 12h159c9.33301 0 18.166 -4 26.499 -12s12.5 -16.667 12.5 -26v-348zM529 347h-31v-270h31
v270zM888 38c0 -9.33301 -4.16699 -18 -12.5 -26s-17.166 -12 -26.499 -12h-159c-9.33301 0 -18 4 -26 12s-12 16.667 -12 26v348c0 9.33301 4 18 12 26s16.667 12 26 12h159c9.33301 0 18.166 -4 26.499 -12s12.5 -16.667 12.5 -26v-348zM785 347h-31v-270h31v270z" />
    <glyph glyph-name="guilsinglleft" unicode="&#x2039;" horiz-adv-x="276" 
d="M134 242l-114 182l114 181h122l-116 -181l116 -182h-122z" />
    <glyph glyph-name="guilsinglright" unicode="&#x203a;" horiz-adv-x="276" 
d="M20 242l116 182l-116 181h122l114 -181l-114 -182h-122z" />
    <glyph glyph-name="Euro" unicode="&#x20ac;" horiz-adv-x="545" 
d="M485 437h-164v-27h154l-38 -101h-116v-156h161l-36 -153h-274c-10 0 -19.5 2.16699 -28.5 6.5s-17.167 10 -24.5 17s-13.166 15 -17.499 24s-6.5 18.5 -6.5 28.5v233h-75l39 101h36v27h-69l38 102h31v232c0 10 2.16699 19.5 6.5 28.5s10.166 17 17.499 24
s15.5 12.667 24.5 17s18.5 6.5 28.5 6.5h274l36 -153h-161v-155h204z" />
    <glyph glyph-name="trademark" unicode="&#x2122;" horiz-adv-x="557" 
d="M164 785v-275h-90v275h-54l15 60h169l14 -60h-54zM448 510l-0.00195312 273h-18v-273h-90v273h-18v-273h-89v335h89v-22c2.66699 6.66699 6.66699 12 12 16s11 6 17 6h48c6.66699 0 12.834 -2.33301 18.501 -7s9.5 -10 11.5 -16c1.33301 6 4.83301 11.333 10.5 16
s11.834 7 18.501 7h48c8 0 15.167 -3 21.5 -9s9.5 -13 9.5 -21v-305h-89z" />
    <glyph glyph-name="minus" unicode="&#x2212;" horiz-adv-x="687" 
d="M20 307v231h647v-231h-647z" />
    </font>
</defs>
</svg>
